<svg width="20" height="20" viewBox="0 0 20 20" fill="none" xmlns="http://www.w3.org/2000/svg">
<g clip-path="url(#clip0_14_1753)">
<path d="M15.525 15.3739C16.4434 16.2139 17.0983 17.2311 17.4219 18.4375C17.4351 18.4851 17.4351 18.4851 17.4486 18.5336C17.5278 18.8627 17.5953 19.3351 17.4145 19.6387C17.2767 19.8149 17.1264 19.9287 16.914 20C16.8015 20.0099 16.8015 20.0099 16.6749 20.01C16.6266 20.0103 16.5782 20.0105 16.5284 20.0108C16.4748 20.0107 16.4212 20.0106 16.3677 20.0104C16.3107 20.0106 16.2537 20.0108 16.1967 20.011C16.0401 20.0114 15.8835 20.0114 15.7269 20.0113C15.558 20.0113 15.3891 20.0118 15.2202 20.0121C14.8893 20.0128 14.5583 20.013 14.2274 20.013C13.9584 20.0131 13.6895 20.0132 13.4205 20.0135C12.658 20.0142 11.8955 20.0145 11.133 20.0145C11.0919 20.0145 11.0508 20.0145 11.0085 20.0145C10.9673 20.0145 10.9261 20.0145 10.8837 20.0145C10.2166 20.0144 9.54944 20.0152 8.8823 20.0163C8.1974 20.0174 7.5125 20.0179 6.8276 20.0179C6.44303 20.0178 6.05847 20.0181 5.6739 20.0189C5.34648 20.0196 5.01906 20.0198 4.69164 20.0192C4.52459 20.019 4.35755 20.019 4.1905 20.0197C4.03751 20.0203 3.88454 20.0202 3.73155 20.0195C3.67627 20.0194 3.62099 20.0195 3.56571 20.0199C3.25868 20.0222 3.03439 20.0131 2.77342 19.8437C2.693 19.7642 2.693 19.7642 2.63914 19.685C2.61142 19.6457 2.61142 19.6457 2.58314 19.6055C2.38739 19.2757 2.49302 18.7766 2.58193 18.4226C2.87674 17.3307 3.43835 16.4351 4.21873 15.625C4.24567 15.5956 4.27261 15.5662 4.30037 15.5359C4.90322 14.8971 5.69466 14.4313 6.48436 14.0625C6.52746 14.0421 6.57056 14.0217 6.61497 14.0007C7.27086 13.7048 7.96342 13.5156 8.67186 13.3984C8.72125 13.3896 8.77065 13.3808 8.82154 13.3717C11.2035 13.016 13.7385 13.7626 15.525 15.3739Z" fill="white"/>
<path d="M9.17963 -2.77298e-05C9.17986 0.0320667 9.18009 0.064161 9.18032 0.097228C9.18259 0.400659 9.18541 0.704078 9.18883 1.0075C9.19058 1.16346 9.19211 1.31943 9.19316 1.4754C9.19418 1.62611 9.19576 1.7768 9.19772 1.9275C9.19837 1.98481 9.19882 2.04212 9.19906 2.09943C9.19644 2.60422 9.19644 2.60422 9.42865 3.03952C9.65012 3.22408 9.82759 3.28828 10.1171 3.28122C10.3826 3.22961 10.5417 3.09062 10.6933 2.86862C10.7806 2.69835 10.7867 2.54975 10.7892 2.35917C10.7896 2.33362 10.79 2.30807 10.7904 2.28175C10.7916 2.19763 10.7926 2.11351 10.7935 2.02939C10.7944 1.97094 10.7952 1.91248 10.796 1.85403C10.7982 1.70042 10.8001 1.54681 10.802 1.3932C10.8039 1.23636 10.8061 1.07951 10.8083 0.922671C10.8125 0.615107 10.8164 0.307541 10.8203 -2.77298e-05C10.8942 0.00539114 10.968 0.0110252 11.0419 0.0167474C11.1036 0.0214182 11.1036 0.0214182 11.1666 0.0261834C11.3469 0.0451092 11.5159 0.0880238 11.6894 0.139132C11.7421 0.154512 11.7421 0.154512 11.7959 0.170203C12.7007 0.446603 13.545 1.02985 14.1015 1.79685C14.1174 1.81854 14.1333 1.84023 14.1497 1.86257C14.6263 2.51954 14.98 3.31776 14.9999 4.1406C15.0443 4.14221 15.0886 4.14382 15.1342 4.14548C15.3692 4.17553 15.5732 4.29823 15.7195 4.48484C15.8609 4.72245 15.9032 4.96848 15.8399 5.23908C15.7464 5.51851 15.5627 5.67121 15.3124 5.82028C15.1986 5.85635 15.0958 5.8643 14.9768 5.86448C14.9407 5.86463 14.9047 5.86478 14.8676 5.86494C14.8281 5.8649 14.7887 5.86487 14.748 5.86483C14.706 5.86495 14.6639 5.86507 14.6207 5.86519C14.4794 5.86552 14.3381 5.86558 14.1968 5.86564C14.0956 5.86582 13.9945 5.86602 13.8934 5.86623C13.6184 5.86676 13.3433 5.867 13.0682 5.86717C12.8965 5.86728 12.7247 5.86744 12.5529 5.86762C12.0772 5.86809 11.6015 5.86849 11.1258 5.86863C11.0954 5.86864 11.0649 5.86864 11.0336 5.86865C10.9878 5.86867 10.9878 5.86867 10.9411 5.86868C10.8793 5.8687 10.8174 5.86871 10.7556 5.86873C10.7249 5.86874 10.6943 5.86875 10.6627 5.86876C10.1658 5.86891 9.66887 5.86959 9.17197 5.8705C8.66169 5.87143 8.15142 5.87192 7.64114 5.87196C7.35469 5.872 7.06824 5.87222 6.78179 5.87293C6.51234 5.8736 6.24289 5.87366 5.97344 5.87332C5.87455 5.87329 5.77566 5.87346 5.67677 5.87384C5.54175 5.87434 5.40674 5.87411 5.27172 5.8737C5.23261 5.87402 5.1935 5.87433 5.15321 5.87466C4.83887 5.87244 4.56692 5.81695 4.33588 5.58591C4.17043 5.34669 4.11108 5.13386 4.14056 4.84372C4.20574 4.58348 4.3178 4.40251 4.54095 4.24802C4.69153 4.16702 4.83062 4.15248 4.99994 4.1406C5.00004 4.1191 5.00014 4.09759 5.00024 4.07544C5.05232 2.95574 5.69052 1.90678 6.47668 1.14362C7.19676 0.514298 8.20328 -0.0105451 9.17963 -2.77298e-05Z" fill="white"/>
<path d="M5 7.5C8.3 7.5 11.6 7.5 15 7.5C15 8.22911 15 8.22911 14.9365 8.51562C14.9296 8.54829 14.9227 8.58095 14.9155 8.6146C14.7043 9.55707 14.2202 10.3643 13.5547 11.0547C13.5291 11.0827 13.5035 11.1108 13.4772 11.1397C13.2467 11.3854 12.9742 11.5717 12.6953 11.7578C12.6588 11.7824 12.6223 11.8071 12.5847 11.8324C11.5074 12.509 10.0863 12.6937 8.85244 12.4156C7.94637 12.1868 7.1576 11.7383 6.48438 11.0938C6.45522 11.0671 6.42607 11.0404 6.39603 11.0129C6.1373 10.7681 5.9399 10.4894 5.74219 10.1953C5.72048 10.1641 5.69878 10.133 5.67642 10.1009C5.17223 9.32886 5 8.40276 5 7.5Z" fill="white"/>
</g>
<defs>
<clipPath id="clip0_14_1753">
<rect width="20" height="20" fill="white"/>
</clipPath>
</defs>
</svg>
