<svg width="20" height="22" viewBox="0 0 20 22" fill="none" xmlns="http://www.w3.org/2000/svg">
<path d="M4.51108 16.8666H4.50742C4.30504 16.8666 4.14258 17.0308 4.14258 17.2332C4.14258 17.4356 4.30869 17.5999 4.51108 17.5999C4.71346 17.5999 4.87773 17.4356 4.87773 17.2332C4.87773 17.0308 4.71346 16.8666 4.51108 16.8666Z" fill="white"/>
<path d="M6.71103 16.8666H6.70738C6.50499 16.8666 6.34253 17.0308 6.34253 17.2332C6.34253 17.4356 6.50865 17.5999 6.71103 17.5999C6.91341 17.5999 7.07768 17.4356 7.07768 17.2332C7.07768 17.0308 6.91341 16.8666 6.71103 16.8666Z" fill="white"/>
<path d="M9.63348 11.7333H6.70015C6.49738 11.7333 6.3335 11.8975 6.3335 12.0999C6.3335 12.3023 6.49738 12.4666 6.70015 12.4666H9.63348C9.83625 12.4666 10.0001 12.3023 10.0001 12.0999C10.0001 11.8975 9.83625 11.7333 9.63348 11.7333Z" fill="white"/>
<path d="M8.16679 13.9333H6.70015C6.49738 13.9333 6.3335 14.0976 6.3335 14.2999C6.3335 14.5023 6.49738 14.6666 6.70015 14.6666H8.16679C8.36956 14.6666 8.53344 14.5023 8.53344 14.2999C8.53349 14.0976 8.36956 13.9333 8.16679 13.9333Z" fill="white"/>
<path d="M14.4 12.8333C13.9956 12.8333 13.6667 12.5044 13.6667 12.1C13.6667 11.8976 13.5028 11.7333 13.3 11.7333C13.0972 11.7333 12.9333 11.8976 12.9333 12.1C12.9333 12.7812 13.4023 13.3507 14.0333 13.5146V13.5667C14.0333 13.7691 14.1972 13.9333 14.4 13.9333C14.6028 13.9333 14.7666 13.7691 14.7666 13.5667V13.5146C15.3977 13.3507 15.8666 12.7812 15.8666 12.1C15.8666 11.2911 15.2088 10.6333 14.4 10.6333C13.9956 10.6333 13.6667 10.3045 13.6667 9.89999C13.6667 9.49557 13.9955 9.16665 14.4 9.16665C14.8044 9.16665 15.1333 9.49553 15.1333 9.89999C15.1333 10.1024 15.2972 10.2666 15.5 10.2666C15.7028 10.2666 15.8666 10.1024 15.8666 9.89999C15.8666 9.21872 15.3977 8.6493 14.7666 8.48538V8.4333C14.7666 8.23092 14.6028 8.06665 14.4 8.06665C14.1972 8.06665 14.0333 8.23092 14.0333 8.4333V8.48538C13.4023 8.64926 12.9333 9.21872 12.9333 9.89999C12.9333 10.7089 13.5912 11.3666 14.4 11.3666C14.8044 11.3666 15.1333 11.6955 15.1333 12.1C15.1333 12.5044 14.8044 12.8333 14.4 12.8333Z" fill="white"/>
<path d="M13.3111 16.8666H13.3075C13.1051 16.8666 12.9426 17.0308 12.9426 17.2332C12.9426 17.4356 13.1087 17.5999 13.3111 17.5999C13.5135 17.5999 13.6778 17.4356 13.6778 17.2332C13.6778 17.0308 13.5136 16.8666 13.3111 16.8666Z" fill="white"/>
<path d="M17.711 17.5999C17.9134 17.5999 18.0777 17.4357 18.0777 17.2333C18.0777 17.0309 17.9134 16.8666 17.711 16.8666H17.7074C17.505 16.8666 17.3425 17.0309 17.3425 17.2333C17.3425 17.4357 17.5086 17.5999 17.711 17.5999Z" fill="white"/>
<path d="M15.5111 16.8666H15.5074C15.305 16.8666 15.1426 17.0308 15.1426 17.2332C15.1426 17.4356 15.3087 17.5999 15.5111 17.5999C15.7135 17.5999 15.8777 17.4356 15.8777 17.2332C15.8777 17.0308 15.7135 16.8666 15.5111 16.8666Z" fill="white"/>
<path d="M14.0334 4.39999H15.5C15.7028 4.39999 15.8667 4.23572 15.8667 4.03334C15.8667 3.83096 15.7028 3.66669 15.5 3.66669H14.0334C13.8306 3.66669 13.6667 3.83096 13.6667 4.03334C13.6667 4.23572 13.8306 4.39999 14.0334 4.39999Z" fill="white"/>
<path d="M8.91098 16.8666H8.90733C8.70495 16.8666 8.54248 17.0308 8.54248 17.2332C8.54248 17.4356 8.7086 17.5999 8.91098 17.5999C9.11336 17.5999 9.27763 17.4356 9.27763 17.2332C9.27763 17.0308 9.11336 16.8666 8.91098 16.8666Z" fill="white"/>
<path d="M4.5002 12.4666H5.23354C5.43631 12.4666 5.60019 12.3023 5.60019 12.0999C5.60019 11.8975 5.43631 11.7333 5.23354 11.7333H4.5002C4.29743 11.7333 4.13354 11.8975 4.13354 12.0999C4.13354 12.3023 4.29743 12.4666 4.5002 12.4666Z" fill="white"/>
<path d="M4.5002 14.6666H5.23354C5.43631 14.6666 5.60019 14.5023 5.60019 14.2999C5.60019 14.0976 5.43631 13.9333 5.23354 13.9333H4.5002C4.29743 13.9333 4.13354 14.0976 4.13354 14.2999C4.13354 14.5023 4.29743 14.6666 4.5002 14.6666Z" fill="white"/>
<path d="M19.1667 0H0.833448C0.630679 0 0.466797 0.164269 0.466797 0.366651V21.6332C0.466797 21.7813 0.555914 21.9152 0.693027 21.972C0.738487 21.9907 0.786139 21.9999 0.833448 21.9999C0.928795 21.9999 1.02264 21.9625 1.09268 21.8924L3.03344 19.9517L4.9742 21.8924C5.11759 22.0358 5.34932 22.0358 5.49266 21.8924L6.70008 20.685L7.90749 21.8924C8.05088 22.0358 8.28261 22.0358 8.42595 21.8924L9.63337 20.685L10.1075 21.1591C10.2509 21.3025 10.4826 21.3025 10.6259 21.1591L11.8334 19.9517L13.0408 21.1591C13.1842 21.3025 13.4159 21.3025 13.5592 21.1591L14.4 20.3184L15.2408 21.1591C15.3842 21.3025 15.6159 21.3025 15.7592 21.1591L17.7 19.2184L18.9074 20.4258C18.9148 20.4335 18.9224 20.4405 18.9305 20.4471C18.9305 20.4475 18.9309 20.4475 18.9309 20.4475V20.4478C18.991 20.4981 19.0673 20.5292 19.1505 20.5329C19.1641 20.5333 19.1776 20.5333 19.1919 20.5325H19.1923C19.2664 20.527 19.3346 20.5003 19.3899 20.4574C19.4098 20.4423 19.4277 20.4251 19.4438 20.4064C19.4992 20.3423 19.5329 20.259 19.5333 20.1673V20.1666V0.366651C19.5334 0.164269 19.3694 0 19.1667 0ZM18.8 19.2815L17.9593 18.4407C17.8159 18.2974 17.5841 18.2974 17.4408 18.4407L15.5 20.3815L14.6593 19.5407C14.5159 19.3973 14.2842 19.3973 14.1408 19.5407L13.3001 20.3815L12.0926 19.174C11.9493 19.0307 11.7175 19.0307 11.5742 19.174L10.3668 20.3815L9.89264 19.9073C9.74926 19.764 9.51753 19.764 9.37418 19.9073L8.16677 21.1148L6.95935 19.9073C6.88785 19.8358 6.79396 19.7999 6.70012 19.7999C6.60623 19.7999 6.51239 19.8358 6.44089 19.9073L5.23347 21.1148L3.29271 19.174C3.14933 19.0306 2.9176 19.0306 2.77425 19.174L1.20014 20.7481V0.733345H18.8001V19.2815H18.8Z" fill="white"/>
<path d="M2.31113 17.5999C2.51351 17.5999 2.67778 17.4357 2.67778 17.2333C2.67778 17.0309 2.51351 16.8666 2.31113 16.8666H2.30747C2.10509 16.8666 1.94263 17.0309 1.94263 17.2333C1.94263 17.4357 2.10874 17.5999 2.31113 17.5999Z" fill="white"/>
<path d="M4.5002 10.2666H5.23354C5.43631 10.2666 5.60019 10.1024 5.60019 9.89998C5.60019 9.69759 5.43631 9.53333 5.23354 9.53333H4.5002C4.29743 9.53333 4.13354 9.69759 4.13354 9.89998C4.13354 10.1024 4.29743 10.2666 4.5002 10.2666Z" fill="white"/>
<path d="M11.1112 17.5999C11.3136 17.5999 11.4778 17.4357 11.4778 17.2333C11.4778 17.0309 11.3136 16.8666 11.1112 16.8666H11.1075C10.9051 16.8666 10.7427 17.0309 10.7427 17.2333C10.7427 17.4357 10.9088 17.5999 11.1112 17.5999Z" fill="white"/>
<path d="M6.70015 8.06661H8.90014C9.10291 8.06661 9.26679 7.90235 9.26679 7.69996C9.26679 7.49758 9.10291 7.33331 8.90014 7.33331H6.70015C6.49738 7.33331 6.3335 7.49758 6.3335 7.69996C6.3335 7.90235 6.49738 8.06661 6.70015 8.06661Z" fill="white"/>
<path d="M4.5002 8.06661H5.23354C5.43631 8.06661 5.60019 7.90235 5.60019 7.69996C5.60019 7.49758 5.43631 7.33331 5.23354 7.33331H4.5002C4.29743 7.33331 4.13354 7.49758 4.13354 7.69996C4.13354 7.90235 4.29743 8.06661 4.5002 8.06661Z" fill="white"/>
<path d="M10.3668 9.53333H6.70015C6.49738 9.53333 6.3335 9.69759 6.3335 9.89998C6.3335 10.1024 6.49738 10.2666 6.70015 10.2666H10.3668C10.5696 10.2666 10.7334 10.1024 10.7334 9.89998C10.7334 9.69759 10.5696 9.53333 10.3668 9.53333Z" fill="white"/>
<path d="M4.5002 4.39999H10.3668C10.5696 4.39999 10.7335 4.23572 10.7335 4.03334C10.7335 3.83096 10.5696 3.66669 10.3668 3.66669H4.5002C4.29743 3.66669 4.13354 3.83096 4.13354 4.03334C4.13354 4.23572 4.29743 4.39999 4.5002 4.39999Z" fill="white"/>
</svg>
