<svg width="24" height="24" viewBox="0 0 24 24" fill="none" xmlns="http://www.w3.org/2000/svg">
<path d="M6.75 6.75H18C19.245 6.75 20.25 7.755 20.25 9V9.75M9 20.25H3C2.40326 20.25 1.83097 20.0129 1.40901 19.591C0.987053 19.169 0.75 18.5967 0.75 18V5.25C0.75 4.85218 0.908035 4.47064 1.18934 4.18934C1.47064 3.90804 1.85218 3.75 2.25 3.75H9.75C10.1478 3.75 10.5294 3.90804 10.8107 4.18934C11.092 4.47064 11.25 4.85218 11.25 5.25V6.75" stroke="white" stroke-linecap="round" stroke-linejoin="round"/>
<path d="M19.3845 17.856H11.25L15.318 10.5L19.3845 17.856Z" stroke="white" stroke-linejoin="round"/>
<path d="M17.493 14.4615C18.2305 14.0416 19.0843 13.8788 19.9224 13.9982C20.7606 14.1176 21.5366 14.5126 22.1305 15.1221C22.7243 15.7316 23.1031 16.5218 23.2082 17.3705C23.3133 18.2193 23.1389 19.0794 22.712 19.818C22.2851 20.5566 21.6294 21.1326 20.8462 21.4571C20.063 21.7815 19.1958 21.8364 18.3787 21.6131C17.5616 21.3898 16.8399 20.9009 16.3252 20.2218C15.8105 19.5428 15.5314 18.7113 15.531 17.856" stroke="white" stroke-linejoin="round"/>
</svg>
