<svg width="20" height="20" viewBox="0 0 20 20" fill="none" xmlns="http://www.w3.org/2000/svg">
<g clip-path="url(#clip0_14_1824)">
<path d="M1.93049 4.31414C2.21765 4.52145 2.40254 4.77666 2.5001 5.11721C2.51021 5.24607 2.51021 5.24607 2.51072 5.38858C2.51091 5.41495 2.51111 5.44132 2.51132 5.46849C2.51189 5.55637 2.51191 5.64423 2.51194 5.73211C2.51223 5.79534 2.51257 5.85856 2.51293 5.92179C2.51365 6.05779 2.51412 6.1938 2.5144 6.32981C2.51485 6.54545 2.51585 6.7611 2.51691 6.97675C2.51854 7.31849 2.51981 7.66022 2.52092 8.00197C2.5229 8.6122 2.52535 9.22244 2.52816 9.83268C2.52912 10.0464 2.52988 10.2601 2.53048 10.4738C2.53088 10.6078 2.53143 10.7418 2.53202 10.8757C2.53225 10.9371 2.53243 10.9985 2.53254 11.0599C2.5331 11.3747 2.53911 11.6883 2.55726 12.0027C2.55884 12.0301 2.56043 12.0576 2.56206 12.086C2.63012 13.1635 3.17563 13.9094 3.92932 14.6304C4.00472 14.7074 4.07461 14.7852 4.14462 14.8668C4.32804 15.0782 4.52701 15.274 4.72529 15.4712C4.76607 15.5119 4.80684 15.5526 4.8476 15.5934C4.95392 15.6995 5.06036 15.8056 5.16682 15.9116C5.27584 16.0202 5.38474 16.1289 5.49365 16.2377C5.70663 16.4502 5.91973 16.6627 6.13291 16.875C6.29036 16.8025 6.39787 16.6982 6.51804 16.5756C6.55023 16.5433 6.55023 16.5433 6.58306 16.5103C6.6513 16.4416 6.71925 16.3727 6.78721 16.3037C6.83353 16.257 6.87986 16.2103 6.92622 16.1637C7.03959 16.0494 7.15272 15.9349 7.26573 15.8203C7.0831 15.5992 6.8858 15.3966 6.68215 15.1948C6.62371 15.1368 6.5654 15.0788 6.50712 15.0207C6.3624 14.8765 6.21748 14.7325 6.07255 14.5885C5.94975 14.4665 5.82704 14.3444 5.70443 14.2222C5.6475 14.1655 5.59046 14.1089 5.5334 14.0524C5.35467 13.8743 5.18088 13.6948 5.0175 13.5024C4.93099 13.403 4.83653 13.3138 4.74131 13.2227C4.3384 12.8252 4.16991 12.3763 4.13096 11.8115C4.14048 11.3194 4.3216 10.8715 4.6583 10.5152C5.06808 10.1308 5.53092 9.95329 6.09242 9.95671C6.79382 9.9942 7.24791 10.3941 7.73005 10.8618C7.85964 10.9873 7.99315 11.1069 8.12953 11.2249C8.23926 11.3205 8.34575 11.4194 8.45225 11.5186C8.63431 11.6874 8.81772 11.8545 9.00263 12.0201C9.11608 12.1224 9.22853 12.2257 9.34092 12.3291C9.46737 12.4454 9.59429 12.5609 9.72422 12.6734C9.86276 12.7935 9.99744 12.9174 10.1319 13.042C10.4969 13.3869 10.4969 13.3869 10.8805 13.71C11.3456 14.0924 11.5759 14.6572 11.6798 15.2344C11.6941 15.3998 11.6947 15.5636 11.6931 15.7295C11.6931 15.7761 11.6931 15.8226 11.6931 15.8706C11.6931 16.0226 11.6922 16.1745 11.6912 16.3265C11.6909 16.4326 11.6908 16.5387 11.6907 16.6448C11.6904 16.8944 11.6894 17.1439 11.6882 17.3935C11.6869 17.6779 11.6863 17.9624 11.6857 18.2468C11.6845 18.8312 11.6824 19.4156 11.6798 20C10.5403 20.0143 9.40072 20.0254 8.26111 20.0319C8.12632 20.0327 7.99153 20.0335 7.85675 20.0344C7.82991 20.0345 7.80308 20.0347 7.77544 20.0349C7.34197 20.0376 6.90855 20.0425 6.47511 20.0482C6.02977 20.0541 5.58447 20.0575 5.13908 20.0588C4.88914 20.0596 4.63931 20.0615 4.38941 20.0661C4.1538 20.0704 3.91837 20.0716 3.68273 20.0707C3.59661 20.0709 3.51048 20.0721 3.42439 20.0745C2.74259 20.0927 2.74259 20.0927 2.47734 19.8632C2.34792 19.7341 2.23433 19.5957 2.12572 19.4488C2.05234 19.3509 1.97071 19.2618 1.88731 19.1724C1.86057 19.1424 1.83383 19.1125 1.80628 19.0816C1.70009 18.9635 1.59235 18.847 1.48448 18.7305C0.429203 17.5888 0.429203 17.5888 0.185647 16.9531C0.171206 16.9156 0.171206 16.9156 0.156474 16.8774C0.0244785 16.5158 -0.0114893 16.1652 -0.0108719 15.7821C-0.011104 15.7364 -0.0113361 15.6908 -0.0115752 15.6438C-0.0121324 15.5182 -0.0123453 15.3926 -0.0124033 15.2671C-0.0125488 15.1312 -0.0131389 14.9953 -0.0136638 14.8595C-0.0147208 14.563 -0.0151949 14.2664 -0.0155395 13.9699C-0.015756 13.7846 -0.0160872 13.5992 -0.0164384 13.4139C-0.0173902 12.9 -0.0181951 12.3862 -0.0184599 11.8723C-0.018477 11.8395 -0.0184942 11.8067 -0.0185119 11.7729C-0.0185289 11.74 -0.018546 11.7071 -0.0185636 11.6732C-0.0185982 11.6065 -0.018633 11.5398 -0.0186682 11.4732C-0.0186855 11.4401 -0.0187028 11.407 -0.0187206 11.373C-0.0190291 10.837 -0.0203932 10.3011 -0.0222118 9.76518C-0.0240666 9.21411 -0.0250382 8.66304 -0.0251292 8.11197C-0.0252006 7.80289 -0.0256465 7.49383 -0.0270683 7.18475C-0.0282744 6.92164 -0.0286698 6.65854 -0.0280263 6.39542C-0.0277221 6.26134 -0.0277882 6.12728 -0.0288901 5.99319C-0.0298854 5.84744 -0.0294239 5.70176 -0.0286102 5.55601C-0.0292396 5.51418 -0.0298691 5.47234 -0.0305176 5.42923C-0.0260383 5.08462 0.0812953 4.78303 0.311763 4.52179C0.747368 4.10439 1.40612 4.00155 1.93049 4.31414Z" fill="white"/>
<path d="M19.4305 4.31411C19.7138 4.51867 19.9105 4.77758 20.0001 5.11718C20.0117 5.26605 20.011 5.41454 20.0105 5.5638C20.0107 5.60902 20.0109 5.65424 20.0111 5.70083C20.0115 5.82603 20.0115 5.95122 20.0114 6.07642C20.0114 6.21159 20.0119 6.34676 20.0122 6.48193C20.0129 6.74671 20.0131 7.01149 20.0131 7.27627C20.0132 7.49171 20.0133 7.70714 20.0136 7.92257C20.0143 8.53408 20.0146 9.14559 20.0146 9.75711C20.0146 9.79006 20.0146 9.82302 20.0146 9.85698C20.0146 9.88997 20.0145 9.92297 20.0145 9.95697C20.0145 10.4909 20.0153 11.0248 20.0164 11.5588C20.0175 12.1077 20.018 12.6567 20.018 13.2056C20.0179 13.5135 20.0181 13.8214 20.019 14.1293C20.0197 14.3917 20.0199 14.654 20.0193 14.9164C20.0191 15.05 20.0191 15.1836 20.0198 15.3172C20.0255 16.6919 19.609 17.5594 18.666 18.5473C18.5171 18.7034 18.3726 18.8621 18.2313 19.0251C18.0988 19.1759 17.9601 19.321 17.8223 19.467C17.7998 19.491 17.7772 19.515 17.754 19.5398C17.7325 19.5623 17.711 19.5848 17.6889 19.608C17.6165 19.6855 17.6165 19.6855 17.5582 19.769C17.3983 19.9827 17.3983 19.9827 17.2549 20.0282C17.1498 20.0384 17.0489 20.0387 16.9434 20.0355C16.9042 20.0355 16.8649 20.0356 16.8244 20.0356C16.6952 20.0354 16.5662 20.033 16.437 20.0305C16.3472 20.0299 16.2574 20.0295 16.1676 20.0292C15.9317 20.028 15.6958 20.0249 15.4599 20.0214C15.219 20.0182 14.9781 20.0168 14.7372 20.0152C14.2649 20.0119 13.7927 20.0066 13.3204 20C13.1289 19.1874 12.9345 18.089 13.3765 17.3249C14.0167 16.3615 15.0013 15.5692 15.8838 14.8347C16.0402 14.7025 16.1757 14.5614 16.3077 14.4048C16.3849 14.3155 16.4706 14.2373 16.5577 14.1577C17.1261 13.5936 17.402 12.7839 17.4443 11.9968C17.4459 11.9681 17.4475 11.9393 17.4491 11.9096C17.4652 11.5965 17.4661 11.2837 17.4653 10.9702C17.4653 10.9063 17.4653 10.8423 17.4653 10.7783C17.4654 10.642 17.4653 10.5057 17.4652 10.3694C17.4651 10.1534 17.4654 9.93747 17.4659 9.72151C17.466 9.68485 17.4661 9.64819 17.4661 9.61042C17.4663 9.53555 17.4665 9.46067 17.4666 9.3858C17.4677 8.88413 17.4685 8.38247 17.4679 7.8808C17.4674 7.54078 17.4678 7.20076 17.4691 6.86074C17.4698 6.68139 17.47 6.50207 17.4693 6.32273C17.4685 6.15422 17.4689 5.98575 17.4701 5.81724C17.4704 5.75577 17.4702 5.6943 17.4696 5.63283C17.4659 5.20941 17.5206 4.85002 17.8117 4.52241C18.2453 4.10304 18.9073 4.00222 19.4305 4.31411Z" fill="white"/>
<path d="M8.83612 6.63435C8.87751 6.63406 8.87751 6.63406 8.91974 6.63377C9.01065 6.6332 9.10155 6.63293 9.19246 6.63271C9.2393 6.63255 9.2393 6.63255 9.28708 6.63238C9.45241 6.63179 9.61774 6.63143 9.78308 6.63126C9.95299 6.63105 10.1229 6.63011 10.2928 6.629C10.4242 6.62827 10.5556 6.62807 10.687 6.62801C10.7496 6.62789 10.8122 6.62758 10.8748 6.62706C11.3573 6.62337 11.782 6.6422 12.1485 6.99221C12.4822 7.36449 12.5168 7.67255 12.5074 8.16164C12.5068 8.21497 12.5063 8.2683 12.5058 8.32163C12.5045 8.45143 12.5025 8.58119 12.5001 8.71096C12.449 8.73868 12.449 8.73868 12.397 8.76696C11.9055 9.03798 11.4823 9.36544 11.0742 9.74991C10.9782 9.8399 10.8809 9.92842 10.7838 10.0171C10.5349 10.2451 10.287 10.4741 10.0392 10.7031C9.91898 10.6493 9.83374 10.5868 9.73888 10.4958C9.71182 10.47 9.68477 10.4443 9.6569 10.4178C9.62836 10.3903 9.59982 10.3628 9.57042 10.3345C9.51042 10.2774 9.4504 10.2203 9.39037 10.1633C9.36103 10.1353 9.3317 10.1074 9.30148 10.0786C9.12026 9.9063 8.93624 9.7373 8.75011 9.57034C8.72025 9.54324 8.72025 9.54324 8.6898 9.5156C8.35377 9.2122 8.00564 8.97041 7.59192 8.78068C7.50011 8.71096 7.50011 8.71096 7.47421 8.60111C7.47267 8.45617 7.4716 8.31147 7.47325 8.16653C7.47217 8.11695 7.47109 8.06738 7.46997 8.0163C7.47095 7.63339 7.55159 7.31248 7.81299 7.02222C8.11464 6.73624 8.42628 6.63655 8.83612 6.63435Z" fill="white"/>
<path d="M15.2344 10.4297C15.2592 10.4492 15.2841 10.4688 15.3098 10.4889C15.6785 10.8134 15.8321 11.3137 15.8716 11.7871C15.8538 12.3374 15.6673 12.7847 15.2921 13.179C15.2174 13.2579 15.1466 13.3376 15.0761 13.4201C14.9073 13.6134 14.7268 13.7938 14.5448 13.9746C14.5097 14.0097 14.4745 14.0448 14.4383 14.081C14.3458 14.1733 14.2533 14.2655 14.1607 14.3576C14.0658 14.4521 13.971 14.5467 13.8763 14.6413C13.6911 14.826 13.5057 15.0107 13.3203 15.1953C13.2116 15.0866 13.2184 14.9978 13.1958 14.8462C12.9777 13.5701 12.1836 12.6712 11.2109 11.875C11.3741 11.6782 11.5452 11.5008 11.7334 11.3281C11.7594 11.3041 11.7854 11.28 11.8122 11.2552C11.9611 11.1178 12.1112 10.9821 12.2652 10.8505C12.3495 10.7761 12.4307 10.6988 12.5123 10.6214C13.2971 9.88249 14.3599 9.71672 15.2344 10.4297Z" fill="white"/>
<path d="M13.3203 4.14061C13.519 4.13769 13.7177 4.13558 13.9164 4.13417C13.9838 4.13359 14.0512 4.13279 14.1187 4.13177C14.6345 4.12416 15.0687 4.12485 15.4688 4.49217C15.7297 4.74955 15.8529 5.02032 15.8641 5.38983C15.8642 5.45178 15.8641 5.51373 15.8638 5.57567C15.8638 5.60961 15.8638 5.64355 15.8638 5.67851C15.8638 5.79032 15.8635 5.90213 15.8632 6.01393C15.8631 6.0916 15.8631 6.16926 15.863 6.24693C15.8629 6.45108 15.8625 6.65523 15.8621 6.85937C15.8617 7.0678 15.8615 7.27622 15.8613 7.48465C15.8609 7.89341 15.8602 8.30217 15.8594 8.71092C15.8329 8.70296 15.8064 8.695 15.7792 8.6868C15.7442 8.67631 15.7093 8.66582 15.6734 8.65501C15.6388 8.64463 15.6043 8.63425 15.5687 8.62356C15.0801 8.47781 14.6089 8.40127 14.1016 8.35936C14.1014 8.33305 14.1012 8.30674 14.1011 8.27963C14.0914 7.37156 13.954 6.63056 13.3203 5.93749C13.2067 5.8288 13.0898 5.72531 12.9688 5.62499C12.9849 5.57826 13.001 5.53153 13.0176 5.48338C13.0689 5.32764 13.1189 5.17156 13.1665 5.01463C13.1853 4.95345 13.1853 4.95345 13.2045 4.89104C13.2685 4.64675 13.2897 4.39091 13.3203 4.14061Z" fill="white"/>
<path d="M5.56971 4.1368C5.61742 4.13688 5.61742 4.13688 5.66609 4.13696C5.76717 4.13718 5.86826 4.13767 5.96934 4.13817C6.03808 4.13836 6.10682 4.13854 6.17556 4.1387C6.34364 4.13913 6.51171 4.13981 6.67979 4.14061C6.68598 4.19066 6.69218 4.24071 6.69856 4.29228C6.74801 4.66701 6.80999 5.00865 6.94987 5.36131C6.98469 5.44949 7.01136 5.53258 7.03135 5.62498C7.00723 5.64492 6.98311 5.66487 6.95826 5.68541C6.33379 6.22149 5.95491 6.91885 5.89183 7.74393C5.88613 7.83756 5.88117 7.9312 5.87657 8.02489C5.87404 8.07334 5.87404 8.07334 5.87145 8.12277C5.86735 8.20163 5.8634 8.28049 5.85948 8.35936C5.8127 8.36319 5.76592 8.36701 5.71772 8.37096C5.30603 8.40763 4.92759 8.47258 4.53135 8.59373C4.46334 8.61419 4.39531 8.63462 4.32727 8.65501C4.29228 8.6655 4.2573 8.67599 4.22125 8.68679C4.19467 8.69476 4.1681 8.70272 4.14073 8.71092C4.138 8.26438 4.13593 7.81785 4.13465 7.3713C4.13404 7.16392 4.13322 6.95655 4.13189 6.74918C4.13061 6.54883 4.12991 6.34849 4.12961 6.14815C4.12939 6.07193 4.12897 5.99572 4.12834 5.91951C4.12047 4.93614 4.12047 4.93614 4.49229 4.53123C4.80618 4.21301 5.12888 4.13389 5.56971 4.1368Z" fill="white"/>
<path d="M14.2263 0.209221C14.3063 0.265842 14.3796 0.325974 14.4532 0.390648C14.4769 0.410235 14.5005 0.429823 14.5249 0.450004C14.7783 0.677425 14.9769 1.02445 15.007 1.36814C15.0237 1.95124 14.9673 2.39375 14.5704 2.85158C14.1885 3.21006 13.7613 3.382 13.2378 3.36886C12.764 3.32911 12.383 3.1466 12.0557 2.80032C11.7272 2.4038 11.5955 1.95607 11.6407 1.44534C11.7152 1.02404 11.9049 0.63882 12.2266 0.351585C12.8139 -0.0543054 13.5935 -0.182207 14.2263 0.209221Z" fill="white"/>
<path d="M7.66591 0.280756C8.01847 0.542657 8.26472 0.918889 8.34691 1.35131C8.41038 1.83397 8.32451 2.27083 8.04723 2.67425C7.75093 3.04822 7.35281 3.30192 6.8749 3.35937C6.35474 3.40278 5.90982 3.2483 5.50283 2.92724C5.20385 2.65398 5.00769 2.26187 4.98677 1.85729C4.97703 1.33987 5.03901 0.946894 5.39052 0.546869C5.41011 0.523203 5.4297 0.499536 5.44988 0.475153C6.015 -0.154595 6.99312 -0.151682 7.66591 0.280756Z" fill="white"/>
<path d="M10.9643 2.76121C11.3429 3.03281 11.594 3.40433 11.6796 3.86717C11.7144 4.43549 11.6193 4.86811 11.2598 5.32011C10.9568 5.65149 10.5455 5.82741 10.1032 5.86775C9.59498 5.88795 9.15699 5.70752 8.78165 5.37108C8.42251 4.99369 8.29945 4.52788 8.30939 4.02052C8.34153 3.56554 8.54895 3.19237 8.87442 2.88084C9.47123 2.37406 10.3122 2.36447 10.9643 2.76121Z" fill="white"/>
</g>
<defs>
<clipPath id="clip0_14_1824">
<rect width="20" height="20" fill="white"/>
</clipPath>
</defs>
</svg>
