<svg width="24" height="24" viewBox="0 0 24 24" fill="none" xmlns="http://www.w3.org/2000/svg">
<g clip-path="url(#clip0_14_692)">
<path d="M15.2833 0.111328C15.1854 0.0449219 15.0464 0 14.9099 0C14.8815 0 14.8506 0 14.8197 0.00585938H1.2412C0.906438 0.00585938 0.592275 0.111328 0.365665 0.283203C0.139056 0.455078 0 0.6875 0 0.949219V19.9531C0 20.2148 0.139056 20.4453 0.365665 20.6172C0.592275 20.7891 0.896137 20.8945 1.2412 20.8945H8.92275V20.0527H1.2309C1.20258 20.0527 1.16137 20.0449 1.14077 20.0215C1.12017 20.0059 1.09957 19.9766 1.09957 19.9531V0.949219C1.09957 0.917969 1.10987 0.896484 1.14077 0.880859C1.16137 0.865234 1.1897 0.849609 1.2309 0.849609H14.3356H14.3459V0.851562V4.53711C14.3459 4.88867 14.5339 5.21094 14.8403 5.44141C15.1442 5.67188 15.5691 5.81641 16.0326 5.81641H20.8017V9.86523H21.9373V5.49219C21.9476 5.45508 21.9579 5.42383 21.9579 5.38672C21.9579 5.25977 21.8807 5.14648 21.77 5.06445L15.3502 0.142578C15.3296 0.126953 15.3219 0.121094 15.3013 0.111328H15.2833ZM12.2678 11.4961H23.0446C23.3073 11.4961 23.5468 11.5762 23.7219 11.709L23.7425 11.7266C23.9047 11.8555 24.0026 12.0312 24.0026 12.2207V23.2754C24.0026 23.4746 23.897 23.6543 23.7219 23.7871L23.7193 23.7891C23.5468 23.9199 23.3073 24.002 23.0446 24.002H12.2678C12.0051 24.002 11.7657 23.9219 11.5906 23.7891L11.57 23.7715C11.4077 23.6426 11.3099 23.4668 11.3099 23.2773V12.2227C11.3099 12.0234 11.4155 11.8438 11.5906 11.7109L11.5931 11.709C11.7631 11.5801 12.0051 11.4961 12.2678 11.4961ZM20.83 13.6113H21.1365V14.8691H20.83V13.6113ZM13.5657 16.7793H15.0721C15.2009 16.7793 15.3064 16.8594 15.3064 16.957V17.9219C15.3064 18.0195 15.2009 18.0996 15.0721 18.0996H13.5657C13.4369 18.0996 13.3313 18.0195 13.3313 17.9219V16.957C13.3288 16.8594 13.4369 16.7793 13.5657 16.7793ZM13.5657 21.3633H15.0721C15.2009 21.3633 15.3064 21.4434 15.3064 21.541V22.5039C15.3064 22.6016 15.2009 22.6816 15.0721 22.6816H13.5657C13.4369 22.6816 13.3313 22.6016 13.3313 22.5039V21.5391C13.3288 21.4453 13.4369 21.3633 13.5657 21.3633ZM13.5657 19.0703H15.0721C15.2009 19.0703 15.3064 19.1504 15.3064 19.25V20.2148C15.3064 20.3125 15.2009 20.3926 15.0721 20.3926H13.5657C13.4369 20.3926 13.3313 20.3125 13.3313 20.2148V19.25C13.3288 19.1523 13.4369 19.0703 13.5657 19.0703ZM20.2429 16.7793H21.7494C21.8781 16.7793 21.9811 16.8594 21.9811 16.957V17.9219C21.9811 18.0195 21.8755 18.0996 21.7494 18.0996H20.2429C20.1142 18.0996 20.0086 18.0195 20.0086 17.9219V16.957C20.006 16.8594 20.1116 16.7793 20.2429 16.7793ZM20.2429 21.3633H21.7494C21.8781 21.3633 21.9811 21.4434 21.9811 21.541V22.5039C21.9811 22.6016 21.8755 22.6816 21.7494 22.6816H20.2429C20.1142 22.6816 20.0086 22.6016 20.0086 22.5039V21.5391C20.006 21.4453 20.1116 21.3633 20.2429 21.3633ZM20.2429 19.0703H21.7494C21.8781 19.0703 21.9811 19.1504 21.9811 19.25V20.2148C21.9811 20.3125 21.8755 20.3926 21.7494 20.3926H20.2429C20.1142 20.3926 20.0086 20.3125 20.0086 20.2148V19.25C20.006 19.1523 20.1116 19.0703 20.2429 19.0703ZM16.903 16.7793H18.4094C18.5382 16.7793 18.6438 16.8594 18.6438 16.957V17.9219C18.6438 18.0195 18.5382 18.0996 18.4094 18.0996H16.903C16.7742 18.0996 16.6687 18.0195 16.6687 17.9219V16.957C16.6661 16.8594 16.7742 16.7793 16.903 16.7793ZM16.903 21.3633H18.4094C18.5382 21.3633 18.6438 21.4434 18.6438 21.541V22.5039C18.6438 22.6016 18.5382 22.6816 18.4094 22.6816H16.903C16.7742 22.6816 16.6687 22.6016 16.6687 22.5039V21.5391C16.6661 21.4453 16.7742 21.3633 16.903 21.3633ZM16.903 19.0703H18.4094C18.5382 19.0703 18.6438 19.1504 18.6438 19.25V20.2148C18.6438 20.3125 18.5382 20.3926 18.4094 20.3926H16.903C16.7742 20.3926 16.6687 20.3125 16.6687 20.2148V19.25C16.6661 19.1523 16.7742 19.0703 16.903 19.0703ZM13.3674 12.8652H21.9451C22.0764 12.8652 22.1923 12.9043 22.2773 12.9707L22.2979 12.9883C22.3725 13.0527 22.4163 13.1348 22.4163 13.2227V15.2539C22.4163 15.3516 22.3648 15.4414 22.2773 15.5059C22.1923 15.5703 22.0738 15.6113 21.9451 15.6113H13.3674C13.2361 15.6113 13.1202 15.5723 13.0352 15.5059L13.0146 15.4883C12.9399 15.4238 12.8961 15.3418 12.8961 15.2539V13.2207C12.8961 13.123 12.9476 13.0352 13.0352 12.9688C13.1202 12.9062 13.2386 12.8652 13.3674 12.8652ZM21.8833 13.2676H13.4292V15.207H21.8833V13.2676ZM23.0446 12.0039H12.2678C12.188 12.0039 12.1159 12.0293 12.0618 12.0684C12.0103 12.1074 11.9768 12.1621 11.9768 12.2227V23.2773C11.9768 23.334 12.0051 23.3848 12.0489 23.4219L12.0618 23.4316C12.1133 23.4707 12.1854 23.4961 12.2652 23.4961H23.0421C23.1219 23.4961 23.194 23.4707 23.2455 23.4316C23.297 23.3926 23.3305 23.3379 23.3305 23.2773V12.2227C23.3305 12.166 23.3021 12.1152 23.2584 12.0781L23.2455 12.0684C23.1966 12.0273 23.1245 12.0039 23.0446 12.0039ZM4.42403 12.832C4.14592 12.832 3.92189 12.6621 3.92189 12.4512C3.92189 12.2402 4.14592 12.0703 4.42403 12.0703H8.61631C8.89442 12.0703 9.11845 12.2402 9.11845 12.4512C9.11845 12.6621 8.89442 12.832 8.61631 12.832H4.42403ZM4.42403 15.7168C4.14592 15.7168 3.92189 15.5469 3.92189 15.3359C3.92189 15.125 4.14592 14.9551 4.42403 14.9551H8.61631C8.89442 14.9551 9.11845 15.125 9.11845 15.3359C9.11845 15.5469 8.89442 15.7168 8.61631 15.7168H4.42403ZM4.60172 3.3457C4.29785 3.3457 4.04034 3.5332 4.04034 3.77344C4.04034 4.00391 4.28755 4.19922 4.60172 4.19922H8.44635C8.75021 4.19922 9.0103 4.01172 9.0103 3.77344C9.0103 3.54297 8.76309 3.3457 8.44635 3.3457H4.60172ZM15.4609 4.53711V1.45117L20.0446 4.9707H16.0326C15.8755 4.9707 15.7365 4.91797 15.6283 4.84375C15.5279 4.76758 15.4609 4.65625 15.4609 4.53711ZM4.60172 6.28516C4.29785 6.28516 4.04034 6.47266 4.04034 6.71094C4.04034 6.94141 4.28755 7.13867 4.60172 7.13867H14.4335C14.7373 7.13867 14.9974 6.95117 14.9974 6.71094C14.9974 6.48047 14.7502 6.2832 14.4335 6.2832L4.60172 6.28516ZM4.60172 9.125C4.29785 9.125 4.04034 9.3125 4.04034 9.55273C4.04034 9.7832 4.28755 9.98047 4.60172 9.98047H17.3099C17.6137 9.98047 17.8738 9.79297 17.8738 9.55273C17.8738 9.32227 17.6266 9.125 17.3099 9.125H4.60172Z" fill="white"/>
</g>
<defs>
<clipPath id="clip0_14_692">
<rect width="24" height="24" fill="white"/>
</clipPath>
</defs>
</svg>
