<svg width="20" height="20" viewBox="0 0 20 20" fill="none" xmlns="http://www.w3.org/2000/svg">
<g clip-path="url(#clip0_14_1812)">
<path opacity="0.973" fill-rule="evenodd" clip-rule="evenodd" d="M9.08203 -0.0195312C9.68098 -0.0195312 10.28 -0.0195312 10.8789 -0.0195312C14.7762 0.486273 17.5562 2.51752 19.2188 6.07422C19.6147 7.04605 19.8686 8.04867 19.9805 9.08203C19.9805 9.68098 19.9805 10.28 19.9805 10.8789C19.4746 14.7762 17.4434 17.5562 13.8867 19.2188C12.9149 19.6147 11.9123 19.8686 10.8789 19.9805C10.28 19.9805 9.68098 19.9805 9.08203 19.9805C5.18465 19.4746 2.40471 17.4433 0.742188 13.8867C0.346247 12.9149 0.0923406 11.9123 -0.0195312 10.8789C-0.0195312 10.28 -0.0195312 9.68098 -0.0195312 9.08203C0.486273 5.18473 2.51752 2.40477 6.07422 0.742188C7.04605 0.346247 8.04867 0.0923406 9.08203 -0.0195312ZM9.51172 1.66016C12.3951 1.60808 14.7454 2.68881 16.5625 4.90234C18.3366 7.34422 18.7402 10.0005 17.7734 12.8711C16.4083 16.1234 13.9669 17.9268 10.4492 18.2812C7.56594 18.353 5.2157 17.2788 3.39844 15.0586C1.45334 12.3305 1.15386 9.42688 2.5 6.34766C3.9948 3.53268 6.33203 1.97018 9.51172 1.66016Z" fill="white"/>
<path opacity="0.973" fill-rule="evenodd" clip-rule="evenodd" d="M9.82432 4.12109C10.3471 4.09105 10.6791 4.32543 10.8204 4.82421C10.8399 5.14949 10.8464 5.475 10.8399 5.80078C11.8641 5.75617 12.6519 6.1598 13.2032 7.01171C13.4603 7.56644 13.3235 7.98964 12.7931 8.28125C12.5212 8.37097 12.2608 8.34492 12.0118 8.20312C11.8342 8.03152 11.6649 7.84921 11.504 7.65625C11.3646 7.55769 11.2083 7.50562 11.0353 7.5C10.3306 7.46421 9.62749 7.47726 8.92589 7.53906C8.39542 7.74722 8.23268 8.11832 8.43761 8.65234C8.52604 8.76691 8.63675 8.85156 8.76964 8.90625C9.61526 9.05371 10.4616 9.19691 11.3087 9.33593C12.6771 9.63695 13.3477 10.4898 13.3204 11.8945C13.084 13.2964 12.2571 14.0516 10.8399 14.1602C10.8464 14.4859 10.8399 14.8114 10.8204 15.1367C10.7159 15.5768 10.4359 15.8112 9.98057 15.8398C9.52522 15.8112 9.24526 15.5768 9.14073 15.1367C9.1212 14.8114 9.11472 14.4859 9.1212 14.1602C8.09702 14.2048 7.30929 13.8011 6.75792 12.9492C6.50089 12.3945 6.63761 11.9713 7.16807 11.6797C7.43999 11.59 7.70038 11.616 7.94932 11.7578C8.13089 11.9499 8.31319 12.1452 8.4962 12.3437C8.63124 12.4118 8.77444 12.4509 8.92589 12.4609C9.55089 12.487 10.1759 12.487 10.8009 12.4609C11.3665 12.3907 11.6334 12.0716 11.6017 11.5039C11.5049 11.2119 11.3031 11.0491 10.9962 11.0156C10.0417 10.8674 9.09116 10.6981 8.14464 10.5078C7.07089 10.0343 6.5696 9.20746 6.64073 8.02734C6.89514 6.6466 7.72198 5.90441 9.1212 5.80078C9.10593 5.42058 9.12546 5.04296 9.17979 4.66796C9.30804 4.37984 9.52288 4.19754 9.82432 4.12109Z" fill="white"/>
</g>
<defs>
<clipPath id="clip0_14_1812">
<rect width="20" height="20" fill="white"/>
</clipPath>
</defs>
</svg>
