<svg width="24" height="24" viewBox="0 0 24 24" fill="none" xmlns="http://www.w3.org/2000/svg">
<g clip-path="url(#clip0_23_540)">
<path d="M2.31659 5.17693C2.66118 5.42571 2.88304 5.73196 3.00012 6.14061C3.01226 6.29525 3.01226 6.29525 3.01286 6.46626C3.0131 6.4979 3.01333 6.52955 3.01358 6.56215C3.01426 6.6676 3.01429 6.77304 3.01432 6.87849C3.01468 6.95437 3.01508 7.03024 3.01552 7.10611C3.01638 7.26932 3.01694 7.43252 3.01728 7.59573C3.01782 7.85451 3.01902 8.11328 3.0203 8.37206C3.02225 8.78215 3.02377 9.19223 3.0251 9.60232C3.02748 10.3346 3.03043 11.0669 3.03379 11.7992C3.03494 12.0556 3.03586 12.3121 3.03657 12.5686C3.03705 12.7293 3.03772 12.8901 3.03842 13.0508C3.03871 13.1245 3.03892 13.1982 3.03904 13.2718C3.03972 13.6496 3.04693 14.0259 3.06871 14.4031C3.07061 14.4361 3.07251 14.4691 3.07447 14.5031C3.15615 15.7962 3.81076 16.6912 4.71519 17.5565C4.80566 17.6488 4.88954 17.7422 4.97354 17.8402C5.19364 18.0938 5.43241 18.3287 5.67035 18.5654C5.71928 18.6143 5.76821 18.6631 5.81712 18.712C5.94471 18.8394 6.07243 18.9667 6.20019 19.0939C6.331 19.2242 6.46168 19.3547 6.59237 19.4852C6.84795 19.7402 7.10367 19.9952 7.3595 20.25C7.54843 20.1629 7.67744 20.0378 7.82165 19.8907C7.86027 19.8519 7.86027 19.8519 7.89967 19.8123C7.98155 19.7299 8.06311 19.6472 8.14465 19.5644C8.20023 19.5084 8.25584 19.4524 8.31146 19.3964C8.44751 19.2593 8.58327 19.1219 8.71887 18.9844C8.49972 18.7189 8.26296 18.4759 8.01858 18.2337C7.94846 18.1642 7.87848 18.0945 7.80854 18.0248C7.63488 17.8517 7.46097 17.679 7.28706 17.5062C7.1397 17.3597 6.99245 17.2132 6.84532 17.0666C6.777 16.9985 6.70855 16.9307 6.64009 16.8628C6.4256 16.6491 6.21706 16.4337 6.021 16.2029C5.91719 16.0836 5.80384 15.9765 5.68957 15.8672C5.20608 15.3902 5.00389 14.8515 4.95715 14.1738C4.96858 13.5832 5.18593 13.0457 5.58996 12.6182C6.08169 12.157 6.6371 11.9439 7.3109 11.948C8.15259 11.993 8.69749 12.4728 9.27606 13.0342C9.43157 13.1847 9.59178 13.3282 9.75544 13.4698C9.88711 13.5845 10.0149 13.7033 10.1427 13.8223C10.3612 14.0248 10.5813 14.2253 10.8032 14.4241C10.9393 14.5468 11.0742 14.6708 11.2091 14.7949C11.3608 14.9345 11.5132 15.0731 11.6691 15.208C11.8353 15.3521 11.9969 15.5009 12.1583 15.6504C12.5963 16.0642 12.5963 16.0642 13.0566 16.452C13.6147 16.9109 13.8911 17.5886 14.0157 18.2812C14.0329 18.4797 14.0337 18.6763 14.0317 18.8754C14.0317 18.9312 14.0318 18.9871 14.0318 19.0447C14.0317 19.227 14.0306 19.4094 14.0295 19.5917C14.0291 19.7191 14.029 19.8464 14.0289 19.9738C14.0284 20.2732 14.0273 20.5727 14.0259 20.8722C14.0243 21.2135 14.0235 21.5548 14.0228 21.8962C14.0214 22.5975 14.0189 23.2987 14.0157 24C12.6483 24.0171 11.2809 24.0304 9.91333 24.0383C9.75159 24.0392 9.58984 24.0402 9.42809 24.0412C9.3959 24.0414 9.3637 24.0416 9.33052 24.0418C8.81036 24.045 8.29026 24.0509 7.77013 24.0579C7.23572 24.0649 6.70136 24.069 6.1669 24.0706C5.86697 24.0715 5.56717 24.0738 5.26729 24.0793C4.98456 24.0844 4.70204 24.0859 4.41928 24.0848C4.31593 24.085 4.21257 24.0865 4.10927 24.0894C3.29111 24.1112 3.29111 24.1112 2.97281 23.8358C2.8175 23.6809 2.68119 23.5149 2.55086 23.3386C2.46281 23.221 2.36486 23.1141 2.26477 23.0068C2.23268 22.9709 2.2006 22.9349 2.16754 22.8979C2.04011 22.7562 1.91082 22.6164 1.78137 22.4766C0.515044 21.1065 0.515044 21.1065 0.222776 20.3437C0.205448 20.2987 0.205448 20.2987 0.187769 20.2528C0.0293742 19.8189 -0.0137871 19.3982 -0.0130463 18.9385C-0.0133248 18.8837 -0.0136033 18.829 -0.0138903 18.7725C-0.0145588 18.6218 -0.0148144 18.4711 -0.0148839 18.3204C-0.0150586 18.1574 -0.0157667 17.9944 -0.0163965 17.8313C-0.0176649 17.4755 -0.0182338 17.1197 -0.0186474 16.7639C-0.0189071 16.5414 -0.0193046 16.319 -0.019726 16.0966C-0.0208682 15.48 -0.0218341 14.8634 -0.0221518 14.2468C-0.0221724 14.2074 -0.022193 14.168 -0.0222142 14.1274C-0.0222347 14.0879 -0.0222552 14.0484 -0.0222763 14.0077C-0.0223179 13.9278 -0.0223597 13.8478 -0.0224018 13.7678C-0.0224226 13.7281 -0.0224434 13.6884 -0.0224648 13.6475C-0.022835 13.0044 -0.0244719 12.3613 -0.0266542 11.7182C-0.02888 11.0569 -0.0300458 10.3956 -0.030155 9.73432C-0.0302408 9.36343 -0.0307758 8.99255 -0.0324819 8.62167C-0.0339293 8.30593 -0.0344037 7.99021 -0.0336315 7.67447C-0.0332666 7.51357 -0.0333458 7.3527 -0.0346681 7.1918C-0.0358625 7.0169 -0.0353087 6.84208 -0.0343323 6.66718C-0.0350876 6.61698 -0.0358429 6.56677 -0.0366211 6.51504C-0.0312459 6.10151 0.0975544 5.7396 0.374116 5.42611C0.896842 4.92524 1.68735 4.80183 2.31659 5.17693Z" fill="white"/>
<path d="M23.3165 5.17693C23.6565 5.42241 23.8925 5.7331 24 6.14062C24.0139 6.31926 24.0131 6.49745 24.0126 6.67657C24.0128 6.73083 24.013 6.7851 24.0132 6.841C24.0137 6.99124 24.0138 7.14147 24.0137 7.29171C24.0137 7.45391 24.0142 7.61612 24.0146 7.77832C24.0154 8.09606 24.0157 8.4138 24.0157 8.73153C24.0157 8.99005 24.0159 9.24857 24.0162 9.50709C24.0171 10.2409 24.0175 10.9747 24.0174 11.7085C24.0174 11.7481 24.0174 11.7876 24.0174 11.8284C24.0174 11.868 24.0174 11.9076 24.0174 11.9484C24.0174 12.5891 24.0183 13.2298 24.0196 13.8705C24.0209 14.5293 24.0216 15.188 24.0215 15.8468C24.0215 16.2162 24.0217 16.5857 24.0227 16.9552C24.0236 17.27 24.0238 17.5848 24.0232 17.8997C24.0229 18.06 24.0228 18.2203 24.0237 18.3807C24.0305 20.0302 23.5308 21.0713 22.3992 22.2567C22.2205 22.444 22.0471 22.6345 21.8775 22.8301C21.7185 23.0111 21.552 23.1852 21.3868 23.3604C21.3597 23.3892 21.3326 23.4181 21.3047 23.4477C21.2789 23.4748 21.2532 23.5018 21.2266 23.5296C21.1397 23.6226 21.1397 23.6226 21.0698 23.7228C20.8779 23.9792 20.8779 23.9792 20.7058 24.0339C20.5797 24.0461 20.4587 24.0464 20.3321 24.0426C20.2849 24.0426 20.2378 24.0427 20.1892 24.0427C20.0342 24.0425 19.8793 24.0396 19.7243 24.0366C19.6166 24.0359 19.5088 24.0354 19.401 24.035C19.1179 24.0336 18.8349 24.0299 18.5519 24.0257C18.2628 24.0219 17.9737 24.0202 17.6846 24.0183C17.1179 24.0143 16.5512 24.0079 15.9844 24C15.7547 23.0248 15.5213 21.7068 16.0517 20.7899C16.82 19.6338 18.0015 18.683 19.0605 17.8016C19.2482 17.643 19.4108 17.4736 19.5692 17.2858C19.6619 17.1786 19.7647 17.0848 19.8692 16.9893C20.5513 16.3124 20.8824 15.3406 20.9331 14.3962C20.935 14.3617 20.9369 14.3272 20.9389 14.2916C20.9582 13.9158 20.9593 13.5405 20.9583 13.1643C20.9583 13.0875 20.9583 13.0107 20.9584 12.9339C20.9584 12.7704 20.9584 12.6068 20.9582 12.4433C20.958 12.1841 20.9585 11.925 20.959 11.6658C20.9591 11.6218 20.9592 11.5778 20.9593 11.5325C20.9595 11.4427 20.9597 11.3528 20.9599 11.263C20.9612 10.661 20.9622 10.059 20.9614 9.45697C20.9608 9.04894 20.9613 8.64092 20.9629 8.23289C20.9637 8.01768 20.964 7.80249 20.9631 7.58728C20.9622 7.38507 20.9627 7.1829 20.9641 6.9807C20.9644 6.90693 20.9642 6.83317 20.9635 6.7594C20.959 6.2513 21.0246 5.82003 21.374 5.4269C21.8943 4.92366 22.6887 4.80267 23.3165 5.17693Z" fill="white"/>
<path d="M10.6032 7.9612C10.6529 7.96085 10.6529 7.96085 10.7036 7.9605C10.8127 7.95981 10.9218 7.95949 11.0309 7.95923C11.0871 7.95903 11.0871 7.95903 11.1444 7.95883C11.3428 7.95813 11.5412 7.9577 11.7396 7.95749C11.9435 7.95724 12.1474 7.95611 12.3512 7.95478C12.5089 7.9539 12.6666 7.95366 12.8243 7.95359C12.8994 7.95345 12.9745 7.95307 13.0496 7.95245C13.6287 7.94802 14.1383 7.97062 14.5782 8.39063C14.9786 8.83736 15.0201 9.20703 15.0088 9.79395C15.0081 9.85794 15.0075 9.92194 15.0069 9.98594C15.0052 10.1417 15.0029 10.2974 15 10.4531C14.9388 10.4864 14.9388 10.4864 14.8763 10.5203C14.2865 10.8455 13.7786 11.2385 13.2889 11.6999C13.1738 11.8079 13.057 11.9141 12.9405 12.0205C12.6418 12.2941 12.3443 12.5689 12.0469 12.8438C11.9027 12.7791 11.8004 12.7041 11.6866 12.5949C11.6541 12.564 11.6216 12.5331 11.5882 12.5013C11.5539 12.4683 11.5197 12.4353 11.4844 12.4014C11.4124 12.3329 11.3404 12.2644 11.2683 12.1959C11.2331 12.1624 11.1979 12.1288 11.1617 12.0943C10.9442 11.8875 10.7234 11.6847 10.5 11.4844C10.4642 11.4519 10.4642 11.4519 10.4277 11.4187C10.0244 11.0546 9.60667 10.7645 9.1102 10.5368C9.00003 10.4531 9.00003 10.4531 8.96896 10.3213C8.9671 10.1474 8.96583 9.97374 8.9678 9.79981C8.9665 9.74032 8.96521 9.68083 8.96387 9.61954C8.96505 9.16005 9.06181 8.77496 9.37549 8.42664C9.73748 8.08347 10.1114 7.96384 10.6032 7.9612Z" fill="white"/>
<path d="M18.2812 12.5156C18.3111 12.5391 18.3409 12.5625 18.3717 12.5867C18.8142 12.976 18.9986 13.5765 19.0459 14.1445C19.0245 14.8049 18.8007 15.3417 18.3505 15.8148C18.2609 15.9095 18.176 16.0052 18.0913 16.1041C17.8888 16.336 17.6721 16.5525 17.4538 16.7695C17.4116 16.8117 17.3694 16.8538 17.3259 16.8972C17.215 17.0079 17.1039 17.1186 16.9928 17.2292C16.879 17.3425 16.7652 17.456 16.6515 17.5695C16.4293 17.7913 16.2069 18.0129 15.9844 18.2344C15.8539 18.1039 15.862 17.9973 15.835 17.8154C15.5733 16.2841 14.6203 15.2055 13.4531 14.25C13.6489 14.0139 13.8542 13.801 14.0801 13.5938C14.1113 13.5649 14.1425 13.536 14.1746 13.5063C14.3533 13.3414 14.5334 13.1786 14.7182 13.0206C14.8194 12.9314 14.9169 12.8386 15.0147 12.7456C15.9565 11.859 17.2319 11.6601 18.2812 12.5156Z" fill="white"/>
<path d="M15.9844 4.96875C16.2228 4.96525 16.4612 4.96271 16.6996 4.96103C16.7806 4.96032 16.8615 4.95937 16.9424 4.95814C17.5614 4.94901 18.0825 4.94983 18.5625 5.39063C18.8756 5.69948 19.0235 6.02441 19.0369 6.46782C19.037 6.54215 19.0369 6.61649 19.0366 6.69082C19.0366 6.73155 19.0366 6.77227 19.0366 6.81423C19.0366 6.9484 19.0362 7.08257 19.0358 7.21674C19.0357 7.30994 19.0357 7.40314 19.0356 7.49634C19.0354 7.74131 19.035 7.98629 19.0345 8.23127C19.034 8.48138 19.0338 8.73149 19.0335 8.9816C19.033 9.47211 19.0322 9.96262 19.0313 10.4531C18.9995 10.4436 18.9677 10.434 18.935 10.4242C18.8931 10.4116 18.8512 10.399 18.808 10.386C18.7666 10.3736 18.7252 10.3611 18.6825 10.3483C18.0961 10.1734 17.5307 10.0815 16.9219 10.0313C16.9217 9.99968 16.9215 9.96811 16.9213 9.93558C16.9097 8.84589 16.7448 7.95669 15.9844 7.125C15.848 6.99458 15.7078 6.87039 15.5625 6.75C15.5818 6.69393 15.6012 6.63785 15.6211 6.58008C15.6827 6.39319 15.7427 6.20589 15.7998 6.01758C15.8224 5.94416 15.8224 5.94416 15.8454 5.86926C15.9222 5.57612 15.9477 5.26911 15.9844 4.96875Z" fill="white"/>
<path d="M6.68356 4.96417C6.7408 4.96427 6.7408 4.96427 6.79921 4.96437C6.92051 4.96463 7.04181 4.96522 7.16311 4.96582C7.2456 4.96606 7.32809 4.96627 7.41058 4.96646C7.61227 4.96698 7.81396 4.96779 8.01565 4.96875C8.02308 5.02881 8.03051 5.08887 8.03817 5.15076C8.09752 5.60043 8.17189 6.0104 8.33975 6.43359C8.38153 6.53941 8.41353 6.63912 8.43752 6.75C8.40858 6.77393 8.37964 6.79786 8.34982 6.82251C7.60045 7.4658 7.14579 8.30264 7.0701 9.29274C7.06326 9.4051 7.05731 9.51746 7.05178 9.62988C7.04875 9.68803 7.04875 9.68803 7.04565 9.74734C7.04072 9.84197 7.03598 9.93661 7.03127 10.0312C6.97514 10.0358 6.919 10.0404 6.86117 10.0452C6.36714 10.0892 5.913 10.1671 5.43752 10.3125C5.35591 10.3371 5.27427 10.3616 5.19263 10.386C5.15064 10.3986 5.10866 10.4112 5.0654 10.4242C5.03351 10.4337 5.00163 10.4433 4.96877 10.4531C4.96551 9.91728 4.96301 9.38143 4.96149 8.84558C4.96076 8.59672 4.95976 8.34788 4.95817 8.09903C4.95663 7.85862 4.95579 7.61821 4.95543 7.3778C4.95517 7.28634 4.95467 7.19488 4.95391 7.10343C4.94446 5.92339 4.94446 5.92339 5.39065 5.4375C5.76732 5.05563 6.15456 4.96069 6.68356 4.96417Z" fill="white"/>
<path d="M17.0715 0.25104C17.1675 0.318986 17.2555 0.391145 17.3438 0.468753C17.3722 0.492258 17.4006 0.515763 17.4299 0.539981C17.734 0.812885 17.9723 1.22931 18.0084 1.64174C18.0284 2.34147 17.9607 2.87247 17.4844 3.42188C17.0263 3.85205 16.5136 4.05838 15.8854 4.0426C15.3168 3.9949 14.8596 3.7759 14.4669 3.36035C14.0726 2.88453 13.9146 2.34726 13.9688 1.73438C14.0582 1.22882 14.2859 0.766559 14.6719 0.421878C15.3767 -0.0651909 16.3122 -0.218673 17.0715 0.25104Z" fill="white"/>
<path d="M9.19924 0.336901C9.62231 0.651183 9.91781 1.10266 10.0164 1.62157C10.0926 2.20076 9.98956 2.72499 9.65682 3.20909C9.30126 3.65786 8.82352 3.9623 8.25002 4.03124C7.62583 4.08333 7.09193 3.89796 6.60354 3.51268C6.24476 3.18476 6.00937 2.71424 5.98427 2.22875C5.97258 1.60784 6.04696 1.13627 6.46877 0.656237C6.49228 0.627837 6.51578 0.599437 6.54 0.570177C7.21815 -0.185521 8.39189 -0.182025 9.19924 0.336901Z" fill="white"/>
<path d="M13.1572 3.31349C13.6116 3.6394 13.9128 4.08523 14.0156 4.64063C14.0573 5.32261 13.9433 5.84177 13.5119 6.38416C13.1483 6.78182 12.6547 6.99292 12.124 7.04133C11.5141 7.06557 10.9885 6.84905 10.5381 6.44532C10.1071 5.99246 9.95944 5.43349 9.97137 4.82466C10.0099 4.27868 10.2588 3.83087 10.6494 3.45704C11.3656 2.8489 12.3748 2.83739 13.1572 3.31349Z" fill="white"/>
</g>
<defs>
<clipPath id="clip0_23_540">
<rect width="24" height="24" fill="white"/>
</clipPath>
</defs>
</svg>
