<svg width="24" height="24" viewBox="0 0 24 24" fill="none" xmlns="http://www.w3.org/2000/svg">
<g clip-path="url(#clip0_23_518)">
<path d="M15.4215 8.97968C15.5076 8.97946 15.5937 8.97922 15.6798 8.97893C15.8595 8.97852 16.0393 8.97863 16.219 8.97909C16.4478 8.97963 16.6765 8.97869 16.9053 8.97732C17.0829 8.97645 17.2605 8.97647 17.4381 8.97674C17.5224 8.97674 17.6066 8.97647 17.6909 8.97588C18.5404 8.9708 19.1915 9.13825 19.8369 9.72364C20.0232 9.91825 20.1522 10.1211 20.2735 10.3594C20.2888 10.3894 20.3041 10.4194 20.3198 10.4503C20.5553 10.9473 20.5459 11.4686 20.5454 12.0068C20.5456 12.0845 20.5458 12.1623 20.546 12.24C20.5463 12.4024 20.5463 12.5647 20.5461 12.7271C20.5458 12.9335 20.5466 13.1399 20.5477 13.3464C20.5484 13.5068 20.5484 13.6672 20.5483 13.8277C20.5483 13.9037 20.5485 13.9797 20.549 14.0558C20.5529 14.7644 20.4646 15.3814 20.0625 15.9844C20.1416 15.9833 20.1416 15.9833 20.2222 15.9821C20.4199 15.9796 20.6176 15.978 20.8153 15.9767C20.9004 15.976 20.9856 15.975 21.0707 15.9738C21.9837 15.961 21.9837 15.961 22.4063 16.125C22.484 16.1549 22.484 16.1549 22.5632 16.1854C23.2385 16.5177 23.6537 17.0093 23.9191 17.7098C23.994 17.9357 24.0072 18.1419 24.0076 18.3796C24.0078 18.4177 24.0081 18.4559 24.0083 18.4952C24.009 18.6213 24.0093 18.7473 24.0096 18.8734C24.0098 18.9614 24.0101 19.0493 24.0104 19.1372C24.0109 19.3217 24.0111 19.5062 24.0113 19.6907C24.0116 19.9262 24.0127 20.1616 24.014 20.3971C24.0149 20.5789 24.0151 20.7606 24.0152 20.9424C24.0153 21.0292 24.0157 21.1159 24.0163 21.2027C24.022 22.0649 24.022 22.0649 23.8594 22.4531C23.8439 22.4955 23.8285 22.538 23.8125 22.5817C23.525 23.1949 23.0098 23.6556 22.3796 23.8885C21.9449 24.0369 21.5187 24.0332 21.0639 24.0295C20.977 24.0295 20.89 24.0296 20.803 24.0298C20.622 24.03 20.441 24.0293 20.26 24.028C20.0294 24.0264 19.7989 24.0267 19.5683 24.0275C19.3891 24.028 19.21 24.0276 19.0308 24.0269C18.9458 24.0267 18.8609 24.0267 18.7759 24.027C17.9627 24.0288 17.3316 23.862 16.7051 23.3154C16.6407 23.25 16.6407 23.25 16.5469 23.1094C16.3702 23.1683 16.3021 23.2574 16.1719 23.3906C15.7865 23.7751 15.258 24.0078 14.7116 24.0132C14.6762 24.0131 14.6409 24.013 14.6045 24.0129C14.5472 24.0132 14.5472 24.0132 14.4888 24.0136C14.3635 24.0143 14.2382 24.0142 14.1129 24.0141C14.0252 24.0143 13.9374 24.0145 13.8497 24.0147C13.666 24.0151 13.4824 24.015 13.2987 24.0148C13.0644 24.0145 12.83 24.0153 12.5957 24.0164C12.4145 24.0171 12.2333 24.0171 12.0521 24.017C11.9658 24.017 11.8794 24.0173 11.7931 24.0177C10.9363 24.0219 10.9363 24.0219 10.5469 23.8594C10.5045 23.8439 10.4621 23.8284 10.4184 23.8125C9.82246 23.5331 9.35591 23.0284 9.12601 22.415C9.09843 22.3344 9.07193 22.2534 9.04691 22.1719C9.03861 22.1463 9.03031 22.1208 9.02176 22.0945C8.98978 21.9324 8.99232 21.7708 8.99174 21.6063C8.99128 21.5493 8.99128 21.5493 8.9908 21.4912C8.98988 21.3655 8.98933 21.2399 8.98887 21.1143C8.98867 21.0712 8.98848 21.0281 8.98829 20.9837C8.98731 20.7554 8.98664 20.5271 8.9862 20.2988C8.98568 20.0642 8.98407 19.8296 8.98221 19.595C8.98097 19.4136 8.98059 19.2322 8.98042 19.0509C8.98019 18.9644 8.97965 18.878 8.97878 18.7916C8.97079 17.9496 9.14374 17.2836 9.73136 16.6487C10.0548 16.3558 10.4492 16.1319 10.875 16.0313C10.9069 16.0232 10.9388 16.0151 10.9717 16.0067C11.1592 15.9763 11.3425 15.9786 11.5322 15.9798C11.5926 15.9799 11.5926 15.9799 11.6542 15.98C11.7821 15.9803 11.9101 15.9809 12.0381 15.9814C12.1251 15.9817 12.2121 15.9819 12.2991 15.9821C12.5119 15.9826 12.7247 15.9834 12.9375 15.9844C12.9213 15.959 12.9051 15.9337 12.8885 15.9076C12.8673 15.8742 12.8461 15.8407 12.8242 15.8062C12.8032 15.7732 12.7822 15.7401 12.7605 15.706C12.6873 15.5826 12.6407 15.459 12.5977 15.3223C12.5829 15.2767 12.5682 15.2311 12.553 15.1842C12.4829 14.9263 12.4626 14.6826 12.4612 14.4156C12.4609 14.3648 12.4609 14.3648 12.4605 14.3129C12.4598 14.2015 12.4595 14.0901 12.4593 13.9786C12.4591 13.9211 12.4591 13.9211 12.4589 13.8624C12.4582 13.6594 12.4577 13.4563 12.4575 13.2532C12.4573 13.0449 12.4561 12.8366 12.4548 12.6282C12.4539 12.4668 12.4537 12.3054 12.4536 12.1439C12.4535 12.0672 12.4531 11.9905 12.4525 11.9138C12.4463 11.0841 12.5912 10.3271 13.1807 9.70606C13.8599 9.0752 14.5357 8.97773 15.4215 8.97968ZM13.8031 10.6311C13.4543 11.0907 13.4926 11.6451 13.4922 12.1957C13.492 12.2602 13.4919 12.3246 13.4917 12.3891C13.4914 12.5237 13.4913 12.6583 13.4913 12.7929C13.4914 12.9641 13.4907 13.1352 13.4899 13.3063C13.4894 13.4393 13.4893 13.5723 13.4893 13.7053C13.4892 13.7987 13.4887 13.892 13.4882 13.9853C13.4897 14.5915 13.5383 15.1061 13.9653 15.566C14.3158 15.8906 14.6681 15.9893 15.1415 15.9919C15.1737 15.9922 15.2059 15.9924 15.2391 15.9926C15.3451 15.9933 15.4512 15.9936 15.5572 15.9939C15.5937 15.994 15.6301 15.9942 15.6676 15.9943C15.8606 15.995 16.0535 15.9954 16.2464 15.9956C16.4446 15.9959 16.6428 15.997 16.841 15.9984C16.9944 15.9992 17.1477 15.9995 17.3011 15.9995C17.3741 15.9997 17.4471 16.0001 17.5201 16.0007C18.0932 16.0052 18.5964 15.9778 19.0313 15.5625C19.5019 15.0374 19.5073 14.492 19.5079 13.8199C19.5081 13.7554 19.5082 13.691 19.5084 13.6266C19.5087 13.4919 19.5087 13.3573 19.5087 13.2227C19.5087 13.0516 19.5094 12.8804 19.5102 12.7093C19.5107 12.5763 19.5108 12.4433 19.5108 12.3103C19.5108 12.217 19.5113 12.1236 19.5119 12.0303C19.5104 11.4285 19.4686 10.8946 19.043 10.4414C18.7122 10.1273 18.39 10.0263 17.9404 10.023C17.8894 10.0225 17.8894 10.0225 17.8373 10.022C17.7249 10.0211 17.6125 10.0206 17.5002 10.0201C17.4423 10.0198 17.4423 10.0198 17.3833 10.0195C17.1792 10.0185 16.975 10.0179 16.7708 10.0174C16.5609 10.0169 16.351 10.0153 16.141 10.0134C15.9788 10.0122 15.8166 10.0118 15.6544 10.0116C15.577 10.0114 15.4997 10.0109 15.4224 10.01C14.7483 10.0029 14.2574 10.0993 13.8031 10.6311ZM10.4063 17.4844C10.1269 17.8253 10.0203 18.1482 10.0177 18.5912C10.0174 18.6253 10.017 18.6593 10.0167 18.6944C10.0158 18.806 10.0156 18.9176 10.0155 19.0292C10.0152 19.1075 10.0149 19.1858 10.0146 19.2641C10.014 19.4279 10.0139 19.5917 10.0139 19.7554C10.0139 19.9643 10.0126 20.1731 10.011 20.3819C10.01 20.5435 10.0098 20.7052 10.0098 20.8668C10.0097 20.9437 10.0093 21.0207 10.0086 21.0976C10.0035 21.6911 10.0642 22.1472 10.4863 22.5947C10.7954 22.8616 11.1374 22.9742 11.5395 22.9763C11.5906 22.9767 11.5906 22.9767 11.6428 22.977C11.7556 22.9777 11.8685 22.978 11.9814 22.9783C12.06 22.9785 12.1387 22.9788 12.2173 22.9791C12.3824 22.9796 12.5476 22.9799 12.7127 22.98C12.9234 22.9803 13.1341 22.9814 13.3448 22.9827C13.5075 22.9836 13.6701 22.9838 13.8327 22.9839C13.9103 22.9841 13.988 22.9844 14.0656 22.9851C14.6186 22.9891 15.0668 22.9661 15.512 22.598C15.8516 22.2564 15.9955 21.84 15.9973 21.3635C15.9976 21.3152 15.9976 21.3152 15.998 21.2659C15.9987 21.1603 15.9986 21.0548 15.9985 20.9493C15.9987 20.8752 15.9989 20.8011 15.9991 20.7271C15.9995 20.5721 15.9995 20.4171 15.9992 20.2622C15.9989 20.0647 15.9997 19.8672 16.0008 19.6698C16.0015 19.5168 16.0015 19.3639 16.0014 19.2109C16.0014 19.1382 16.0017 19.0654 16.0021 18.9927C16.0057 18.3671 15.9449 17.8867 15.5069 17.4082C15.18 17.0905 14.7864 17.0109 14.3437 17.0073C14.3115 17.007 14.2794 17.0067 14.2463 17.0064C14.1405 17.0055 14.0347 17.0049 13.9289 17.0045C13.8925 17.0043 13.8561 17.0041 13.8186 17.0039C13.626 17.0029 13.4333 17.0022 13.2406 17.0018C13.0428 17.0013 12.845 16.9997 12.6473 16.9978C12.4941 16.9966 12.341 16.9962 12.1878 16.996C12.115 16.9958 12.0421 16.9952 11.9693 16.9944C11.3835 16.9878 10.8429 17.0526 10.4063 17.4844ZM17.3255 17.5783C17.07 17.8952 17.0105 18.26 17.0074 18.6564C17.0071 18.6885 17.0067 18.7206 17.0064 18.7537C17.0055 18.8595 17.005 18.9653 17.0045 19.0712C17.0043 19.1075 17.0041 19.1439 17.0039 19.1814C17.0029 19.3741 17.0023 19.5668 17.0018 19.7594C17.0013 19.9572 16.9997 20.155 16.9978 20.3528C16.9966 20.5059 16.9962 20.6591 16.996 20.8122C16.9958 20.8851 16.9953 20.9579 16.9944 21.0307C16.9882 21.5799 17.0423 22.0682 17.4016 22.5101C17.7398 22.852 18.1136 22.9796 18.5912 22.9824C18.6423 22.9828 18.6423 22.9828 18.6944 22.9833C18.806 22.9842 18.9176 22.9844 19.0293 22.9845C19.1076 22.9848 19.1858 22.9851 19.2641 22.9854C19.4279 22.986 19.5917 22.9862 19.7555 22.9861C19.9643 22.9861 20.1731 22.9874 20.3819 22.989C20.5436 22.9901 20.7052 22.9902 20.8668 22.9902C20.9438 22.9903 21.0207 22.9907 21.0976 22.9914C21.6912 22.9965 22.1473 22.9358 22.5947 22.5137C22.8616 22.2047 22.9743 21.8626 22.9763 21.4606C22.9766 21.4265 22.9768 21.3924 22.977 21.3573C22.9777 21.2444 22.978 21.1315 22.9783 21.0187C22.9786 20.94 22.9788 20.8614 22.9791 20.7827C22.9796 20.6176 22.9799 20.4525 22.98 20.2874C22.9803 20.0767 22.9814 19.8659 22.9828 19.6552C22.9836 19.4926 22.9839 19.33 22.984 19.1673C22.9841 19.0897 22.9845 19.0121 22.9851 18.9344C22.9892 18.3814 22.9661 17.9332 22.598 17.488C22.2564 17.1484 21.84 17.0045 21.3635 17.0028C21.3152 17.0024 21.3152 17.0024 21.2659 17.002C21.1604 17.0014 21.0549 17.0014 20.9493 17.0015C20.8752 17.0013 20.8012 17.0011 20.7271 17.0009C20.5721 17.0006 20.4172 17.0006 20.2622 17.0008C20.0647 17.0011 19.8673 17.0003 19.6698 16.9992C19.5169 16.9985 19.3639 16.9985 19.211 16.9986C19.1382 16.9986 19.0655 16.9984 18.9927 16.9979C18.3202 16.994 17.8129 17.0768 17.3255 17.5783Z" fill="white"/>
<path d="M4.05064 5.98105C4.16672 5.98078 4.2828 5.98045 4.39888 5.98007C4.68032 5.97932 4.96174 5.97923 5.24318 5.97947C5.47188 5.97966 5.70059 5.97959 5.92929 5.97934C5.96193 5.97931 5.99457 5.97927 6.0282 5.97924C6.09452 5.97917 6.16084 5.97909 6.22716 5.97902C6.84759 5.97838 7.46802 5.97863 8.08846 5.97917C8.65601 5.97964 9.22355 5.97903 9.7911 5.97791C10.3746 5.97676 10.958 5.97631 11.5415 5.97663C11.8688 5.97679 12.1961 5.97668 12.5234 5.97586C12.8308 5.9751 13.1382 5.97532 13.4456 5.97621C13.5585 5.97638 13.6714 5.97623 13.7843 5.97574C13.9381 5.97513 14.092 5.97566 14.2458 5.97649C14.2907 5.97604 14.3356 5.97559 14.3819 5.97513C14.5816 5.97735 14.6895 5.9819 14.8625 6.08935C15.0222 6.26242 15.0182 6.4051 15.0166 6.63353C14.9999 6.74999 14.9999 6.74999 14.8915 6.89354C14.7331 7.00775 14.62 7.03708 14.4297 7.03734C14.3897 7.03751 14.3497 7.03768 14.3086 7.03786C14.2646 7.03781 14.2207 7.03776 14.1755 7.03771C14.1288 7.03784 14.0822 7.03797 14.0341 7.03811C13.877 7.0385 13.72 7.03856 13.5629 7.03863C13.4506 7.03885 13.3382 7.03909 13.2259 7.03935C12.9836 7.03988 12.7413 7.04028 12.4989 7.04058C12.1156 7.04106 11.7323 7.04202 11.3489 7.04307C11.2178 7.04342 11.0866 7.04376 10.9554 7.04411C10.9226 7.0442 10.8898 7.04428 10.856 7.04437C10.4827 7.04535 10.1093 7.04624 9.73596 7.04708C9.70183 7.04715 9.6677 7.04723 9.63254 7.04731C9.08016 7.04854 8.52778 7.04941 7.9754 7.0502C7.40793 7.05101 6.84046 7.05237 6.273 7.05418C5.95453 7.05517 5.63607 7.05591 5.3176 7.05599C5.01781 7.0561 4.71802 7.05684 4.41823 7.05808C4.30839 7.05841 4.19855 7.05851 4.08871 7.05835C3.93832 7.05817 3.78796 7.05885 3.63758 7.05974C3.59449 7.05948 3.5514 7.05922 3.50701 7.05895C2.85219 7.06558 2.20345 7.31862 1.73428 7.78124C1.28357 8.33081 1.07183 8.88332 1.06973 9.59215C1.06942 9.63738 1.06911 9.68261 1.0688 9.72922C1.06787 9.87872 1.06732 10.0282 1.06686 10.1777C1.06667 10.229 1.06647 10.2802 1.06628 10.333C1.0653 10.6046 1.06463 10.8761 1.06419 11.1476C1.06367 11.4268 1.06206 11.706 1.0602 11.9852C1.05897 12.2009 1.05858 12.4167 1.05841 12.6324C1.05818 12.7352 1.05764 12.8381 1.05677 12.9409C1.04951 13.8528 1.15668 14.5744 1.80386 15.2644C2.27827 15.7093 2.87372 15.9374 3.52008 15.9471C3.57543 15.948 3.63078 15.949 3.6878 15.9499C3.77637 15.9511 3.77637 15.9511 3.86672 15.9523C3.9582 15.9538 3.9582 15.9538 4.05153 15.9553C4.2129 15.9578 4.37426 15.9602 4.53563 15.9624C4.7006 15.9648 4.86557 15.9674 5.03054 15.97C5.35366 15.975 5.67678 15.9798 5.9999 15.9844C5.99973 15.95 5.99956 15.9157 5.99938 15.8803C5.99524 15.0451 5.99213 14.2098 5.99019 13.3746C5.98922 12.9706 5.9879 12.5667 5.98576 12.1628C5.98389 11.8108 5.98268 11.4587 5.98226 11.1066C5.98202 10.9202 5.98144 10.7338 5.98008 10.5474C5.9788 10.3719 5.97841 10.1965 5.97869 10.021C5.97862 9.92591 5.97761 9.83084 5.97657 9.73579C5.97683 9.67906 5.97709 9.62234 5.97735 9.5639C5.97718 9.51468 5.97701 9.46547 5.97683 9.41476C6.00582 9.24696 6.07075 9.16856 6.1874 9.04686C6.36164 8.95974 6.56019 8.97284 6.7499 8.99999C6.90676 9.11843 6.96927 9.18933 7.03115 9.37499C7.03554 9.45462 7.0372 9.53442 7.03731 9.61418C7.03749 9.66396 7.03767 9.71373 7.03786 9.76501C7.03782 9.81989 7.03778 9.87477 7.03773 9.93131C7.03787 9.98945 7.03801 10.0476 7.03816 10.1075C7.03849 10.2692 7.03862 10.4309 7.03865 10.5926C7.03874 10.7669 7.03909 10.9412 7.03941 11.1154C7.04005 11.4966 7.04033 11.8778 7.04054 12.259C7.04066 12.4969 7.04086 12.7349 7.04107 12.9728C7.04165 13.6313 7.04213 14.2898 7.04229 14.9483C7.0423 15.0115 7.0423 15.0115 7.04232 15.076C7.04233 15.1183 7.04234 15.1606 7.04235 15.2041C7.04237 15.2897 7.04239 15.3753 7.04241 15.461C7.04243 15.5247 7.04243 15.5247 7.04244 15.5897C7.04263 16.2782 7.04345 16.9667 7.04454 17.6552C7.04565 18.3618 7.04623 19.0684 7.04629 19.7749C7.04633 20.1718 7.0466 20.5686 7.04745 20.9655C7.04817 21.3033 7.04841 21.6412 7.04803 21.979C7.04784 22.1515 7.04789 22.3239 7.04855 22.4963C7.04925 22.6832 7.04887 22.87 7.04838 23.0568C7.04875 23.1114 7.04913 23.1661 7.04952 23.2224C7.04921 23.2724 7.0489 23.3225 7.04859 23.374C7.04861 23.4171 7.04864 23.4602 7.04867 23.5047C7.01993 23.7021 6.90988 23.8798 6.7499 24C6.5234 24.0426 6.33463 24.0327 6.1376 23.9121C5.99334 23.7539 5.99408 23.6633 5.99426 23.453C5.99417 23.3682 5.99417 23.3682 5.99407 23.2817C5.99423 23.2187 5.99441 23.1557 5.99458 23.0928C5.99459 23.0267 5.99459 22.9607 5.99456 22.8946C5.99455 22.715 5.99482 22.5353 5.99515 22.3557C5.99544 22.1681 5.99547 21.9804 5.99552 21.7928C5.99567 21.4374 5.99606 21.082 5.99653 20.7265C5.99705 20.3219 5.99731 19.9174 5.99754 19.5128C5.99803 18.6804 5.99886 17.848 5.9999 17.0156C5.94664 17.0158 5.94664 17.0158 5.89229 17.0159C5.55778 17.0169 5.22326 17.0176 4.88874 17.018C4.71676 17.0183 4.54477 17.0186 4.37279 17.0191C4.20684 17.0197 4.0409 17.0199 3.87495 17.0201C3.78077 17.0202 3.68659 17.0206 3.59242 17.0209C3.53518 17.0209 3.47794 17.0209 3.41897 17.0209C3.34325 17.0211 3.34325 17.0211 3.26599 17.0212C3.14053 17.0156 3.14053 17.0156 2.9999 16.9687C3.00007 17.0033 3.00025 17.0379 3.00042 17.0735C3.00457 17.9146 3.00767 18.7557 3.00962 19.5969C3.01058 20.0036 3.0119 20.4104 3.01405 20.8171C3.01591 21.1717 3.01712 21.5262 3.01754 21.8807C3.01779 22.0684 3.01836 22.2562 3.01973 22.4439C3.021 22.6206 3.02139 22.7973 3.02111 22.974C3.02116 23.0388 3.02153 23.1037 3.02225 23.1685C3.02319 23.2571 3.02285 23.3457 3.02245 23.4343C3.02262 23.4839 3.02279 23.5334 3.02297 23.5845C2.99405 23.7528 2.92946 23.8311 2.8124 23.9531C2.63816 24.0402 2.43962 24.0271 2.2499 24C2.09305 23.8815 2.03054 23.8106 1.96865 23.625C1.96436 23.531 1.96294 23.437 1.96301 23.3429C1.96295 23.284 1.96289 23.225 1.96282 23.1643C1.96298 23.0988 1.96316 23.0333 1.96333 22.9679C1.96334 22.899 1.96334 22.8302 1.96331 22.7614C1.9633 22.5744 1.96357 22.3874 1.9639 22.2004C1.96419 22.005 1.96422 21.8096 1.96427 21.6143C1.96442 21.2442 1.96481 20.8742 1.96528 20.5041C1.9658 20.0829 1.96606 19.6616 1.96629 19.2404C1.96678 18.3738 1.96761 17.5072 1.96865 16.6406C1.92508 16.627 1.8815 16.6133 1.83661 16.5993C1.16938 16.365 0.652315 15.6949 0.328026 15.0937C0.0925679 14.5851 -0.014237 14.1102 -0.0137172 13.5524C-0.0140321 13.5032 -0.014347 13.454 -0.0146714 13.4033C-0.0155573 13.2415 -0.0157448 13.0798 -0.0158458 12.9181C-0.0161475 12.8048 -0.0164629 12.6914 -0.0167914 12.5781C-0.0173517 12.3408 -0.0175265 12.1036 -0.0174709 11.8663C-0.0174614 11.5639 -0.0187399 11.2614 -0.0203559 10.959C-0.0214039 10.7249 -0.021588 10.4909 -0.0215385 10.2568C-0.0216484 10.1454 -0.022059 10.034 -0.0227888 9.9226C-0.0296767 8.76225 0.183234 7.81542 1.00991 6.95763C1.38747 6.58616 1.84647 6.31888 2.34365 6.14061C2.39378 6.1223 2.39378 6.1223 2.44492 6.10361C2.96683 5.945 3.51077 5.97992 4.05064 5.98105Z" fill="white"/>
<path d="M5.9707 0.420971C6.50377 0.831085 6.92956 1.40601 7.02283 2.09071C7.027 2.14636 7.027 2.14636 7.03125 2.20314C7.03687 2.26604 7.03687 2.26604 7.0426 2.33021C7.07405 3.02018 6.8519 3.65679 6.42371 4.19331C5.97033 4.68797 5.35923 4.98154 4.69299 5.02845C3.96518 5.0547 3.3586 4.87147 2.80078 4.39454C2.26415 3.88602 1.97431 3.25457 1.9541 2.51661C1.96826 1.83854 2.21195 1.19981 2.68066 0.706066C3.58544 -0.134348 4.93487 -0.294176 5.9707 0.420971ZM3.30304 1.63111C3.02119 2.00253 2.99624 2.4046 3.04688 2.85939C3.17935 3.29309 3.4478 3.62438 3.84174 3.84925C4.23696 4.03008 4.63467 4.02636 5.04126 3.89228C5.44604 3.72148 5.67747 3.40806 5.90039 3.04396C6.02845 2.71039 6.01252 2.25355 5.87988 1.92482C5.65971 1.51459 5.34739 1.26098 4.93359 1.06349C4.26769 0.922624 3.74019 1.11944 3.30304 1.63111Z" fill="white"/>
<path d="M16.4941 10.9512C16.5535 10.95 16.6129 10.9489 16.6741 10.9477C17.2257 10.946 17.2257 10.946 17.4374 11.1563C17.5315 11.2907 17.5437 11.39 17.5283 11.5518C17.5258 11.5865 17.5233 11.6213 17.5208 11.657C17.4665 11.8189 17.381 11.892 17.2499 12C17.0894 12.0303 17.0894 12.0303 16.9072 12.0311C16.8586 12.0315 16.8586 12.0315 16.809 12.0318C16.7407 12.032 16.6725 12.0315 16.6043 12.0306C16.5002 12.0293 16.3964 12.0305 16.2923 12.032C16.2258 12.0319 16.1592 12.0316 16.0927 12.0311C16.0326 12.0309 15.9725 12.0306 15.9105 12.0303C15.7105 11.9926 15.6416 11.9219 15.5156 11.7656C15.4622 11.6243 15.455 11.4939 15.4687 11.3438C15.6921 10.8887 16.0411 10.9516 16.4941 10.9512Z" fill="white"/>
<path d="M19.8807 17.9862C19.9826 17.9854 20.0844 17.9833 20.1863 17.9812C20.2513 17.9808 20.3163 17.9804 20.3814 17.98C20.4404 17.9794 20.4995 17.9787 20.5603 17.978C20.746 18.0038 20.8216 18.0568 20.9532 18.1875C21.0403 18.3617 21.0272 18.5603 21.0001 18.75C20.8816 18.9069 20.8107 18.9694 20.6251 19.0312C20.4173 19.0447 20.2092 19.0443 20.0011 19.0459C19.9437 19.0473 19.8863 19.0486 19.8272 19.05C19.298 19.0538 19.298 19.0538 19.0782 18.8437C18.9625 18.6702 18.9525 18.5295 18.9844 18.3281C19.2039 17.9257 19.4662 17.9884 19.8807 17.9862Z" fill="white"/>
<path d="M12.8963 17.9836C12.9646 17.9828 13.0328 17.9815 13.101 17.9798C13.1997 17.9772 13.2983 17.9762 13.3969 17.9755C13.456 17.9745 13.515 17.9736 13.5759 17.9727C13.7758 18.0071 13.8426 18.0795 13.9688 18.2344C14.0439 18.3847 14.0385 18.5401 14.0157 18.7031C13.914 18.8701 13.821 18.96 13.6407 19.0313C13.4312 19.0514 13.2211 19.0465 13.0108 19.0459C12.9532 19.0467 12.8957 19.0474 12.8364 19.0482C12.7809 19.0482 12.7254 19.0483 12.6682 19.0483C12.6176 19.0484 12.567 19.0486 12.5148 19.0487C12.3237 19.0249 12.2064 18.9416 12.057 18.8258C11.9572 18.693 11.9786 18.5562 11.983 18.3961C12.0067 18.2365 12.0697 18.1543 12.1875 18.0469C12.3932 17.944 12.6679 17.9855 12.8963 17.9836Z" fill="white"/>
</g>
<defs>
<clipPath id="clip0_23_518">
<rect width="24" height="24" fill="white"/>
</clipPath>
</defs>
</svg>
