<svg width="24" height="24" viewBox="0 0 24 24" fill="none" xmlns="http://www.w3.org/2000/svg">
<path fill-rule="evenodd" clip-rule="evenodd" d="M17.5762 6.74375H22.7285C23.4277 6.74375 24 7.37403 24 8.14413V13.8812C24 14.6513 23.4277 15.2815 22.7285 15.2815H17.5762C15.4453 15.2815 13.7012 13.3606 13.7012 11.0137C13.7012 8.66255 15.4434 6.74375 17.5762 6.74375ZM0.605469 7.9032H10.4297C10.7617 7.9032 11.0352 8.20221 11.0352 8.57005V23.3332C11.0352 23.701 10.7637 24 10.4297 24H0.605469C0.273437 24 0 23.701 0 23.3332V8.57005C0 8.20436 0.271484 7.9032 0.605469 7.9032ZM6.17578 10.7577H7.18359V11.6612H6.17578V10.7577ZM7.95508 10.7577H8.96289V11.6612H7.95508V10.7577ZM1.42773 14.3738H3.10547C3.24805 14.3738 3.36719 14.5028 3.36719 14.662V16.2216C3.36719 16.3786 3.25 16.5098 3.10547 16.5098H1.42773C1.28516 16.5098 1.16602 16.3808 1.16602 16.2216V14.662C1.16602 14.5028 1.2832 14.3738 1.42773 14.3738ZM7.85938 20.2786H9.53516C9.67773 20.2786 9.79492 20.4076 9.79492 20.5668V22.1264C9.79492 22.2856 9.67773 22.4146 9.53516 22.4146H7.85938C7.7168 22.4146 7.59766 22.2856 7.59766 22.1264V20.5668C7.59766 20.4076 7.71484 20.2786 7.85938 20.2786ZM4.64453 20.2786H6.32227C6.46484 20.2786 6.58398 20.4076 6.58398 20.5668V22.1264C6.58398 22.2856 6.4668 22.4146 6.32227 22.4146H4.64453C4.50195 22.4146 4.38281 22.2856 4.38281 22.1264V20.5668C4.38281 20.4076 4.5 20.2786 4.64453 20.2786ZM1.42773 20.2786H3.10547C3.24805 20.2786 3.36719 20.4076 3.36719 20.5668V22.1264C3.36719 22.2856 3.25 22.4146 3.10547 22.4146H1.42773C1.28516 22.4146 1.16602 22.2856 1.16602 22.1264V20.5668C1.16602 20.4076 1.2832 20.2786 1.42773 20.2786ZM7.85938 17.3251H9.53516C9.67773 17.3251 9.79492 17.4542 9.79492 17.6133V19.1729C9.79492 19.3299 9.67773 19.4611 9.53516 19.4611H7.85938C7.7168 19.4611 7.59766 19.3321 7.59766 19.1729V17.6133C7.59766 17.4542 7.71484 17.3251 7.85938 17.3251ZM4.64453 17.3251H6.32227C6.46484 17.3251 6.58398 17.4542 6.58398 17.6133V19.1729C6.58398 19.3299 6.4668 19.4611 6.32227 19.4611H4.64453C4.50195 19.4611 4.38281 19.3321 4.38281 19.1729V17.6133C4.38281 17.4542 4.5 17.3251 4.64453 17.3251ZM1.42773 17.3251H3.10547C3.24805 17.3251 3.36719 17.4542 3.36719 17.6133V19.1729C3.36719 19.3299 3.25 19.4611 3.10547 19.4611H1.42773C1.28516 19.4611 1.16602 19.3321 1.16602 19.1729V17.6133C1.16602 17.4542 1.2832 17.3251 1.42773 17.3251ZM7.85938 14.3738H9.53516C9.67773 14.3738 9.79492 14.5028 9.79492 14.662V16.2216C9.79492 16.3786 9.67773 16.5098 9.53516 16.5098H7.85938C7.7168 16.5098 7.59766 16.3808 7.59766 16.2216V14.662C7.59766 14.5028 7.71484 14.3738 7.85938 14.3738ZM4.64453 14.3738H6.32227C6.46484 14.3738 6.58398 14.5028 6.58398 14.662V16.2216C6.58398 16.3786 6.4668 16.5098 6.32227 16.5098H4.64453C4.50195 16.5098 4.38281 16.3808 4.38281 16.2216V14.662C4.38281 14.5028 4.5 14.3738 4.64453 14.3738ZM1.29102 9.26486H9.62109C9.73047 9.26486 9.82031 9.36381 9.82031 9.48427V12.498C9.82031 12.6184 9.73242 12.7174 9.62109 12.7174H1.29102C1.18164 12.7174 1.0918 12.6184 1.0918 12.498V9.48427C1.0918 9.36381 1.18164 9.26486 1.29102 9.26486ZM5.38867 0.00430548H8.67773L17.8555 0.00215436L19.0645 3.24694e-06C20.3008 -0.00214787 21.3105 1.06481 21.3105 2.42431V2.82872C21.9199 3.27185 22.3242 4.03335 22.3242 4.89379V5.78651H20.8984V5.19065C20.8984 4.54961 20.4219 4.02904 19.8438 4.02904H6.71875V2.73407C6.71875 2.56198 6.84766 2.42001 7.00391 2.42001C11.3594 2.42001 15.7188 2.41786 20.0781 2.41786C20.1602 2.41786 20.2402 2.42216 20.3203 2.43292V2.37268C20.3203 1.9231 19.9863 1.55526 19.5801 1.55526C14.959 1.55526 10.3359 1.55741 5.71289 1.55741C5.30469 1.55741 4.9707 1.92525 4.9707 2.37268V5.59291H3.35352V2.25007C3.34766 1.01533 4.26562 0.00430548 5.38867 0.00430548ZM12.9316 18.0543H20.1406C20.5488 18.0543 20.8828 17.6865 20.8828 17.2369V16.3012H22.3457V17.8457H22.3418C22.3359 18.9126 21.3008 19.7752 20.2793 19.7752H12.9316V18.0543ZM17.7715 8.30761H22.3438V13.7177H17.7715C16.4199 13.7177 15.3164 12.5001 15.3164 11.0116C15.3145 9.52299 16.4199 8.30761 17.7715 8.30761ZM18.8945 10.1167C19.3574 10.1167 19.7324 10.5297 19.7324 11.0395C19.7324 11.5493 19.3574 11.9624 18.8945 11.9624C18.4316 11.9624 18.0566 11.5493 18.0566 11.0395C18.0566 10.5297 18.4316 10.1167 18.8945 10.1167Z" fill="white"/>
</svg>
