<svg width="24" height="24" viewBox="0 0 24 24" fill="none" xmlns="http://www.w3.org/2000/svg">
<path fill-rule="evenodd" clip-rule="evenodd" d="M4.40029 0.00881094H22.6697C23.1193 0.00881094 23.4839 0.326657 23.4839 0.718676C23.4839 5.22538 23.491 8.1013 23.4987 10.8301C23.5296 10.8527 23.5595 10.8766 23.5881 10.9014L23.5912 10.9043C23.8432 11.1242 24 11.4272 24 11.7604V13.9292C24 14.2624 23.8432 14.5653 23.5912 14.7853L23.5881 14.7881C23.5629 14.81 23.5367 14.831 23.5098 14.8512C23.5177 17.805 23.5243 20.5586 23.5243 22.5506C23.5243 22.9498 23.338 23.3118 23.0374 23.5739C22.7368 23.8359 22.3216 23.9984 21.8637 23.9984H4.21851L4.1577 23.9964C3.88036 23.9995 3.62104 24.0005 3.37835 23.9978C3.32816 24.0012 3.27774 24.0006 3.22768 23.996C2.98079 23.9916 2.75123 23.9823 2.53733 23.9661L2.51064 23.964L2.49476 23.9628L2.4643 23.9604L2.45252 23.9593L2.41857 23.9564L2.41082 23.9557C1.92845 23.9127 1.53164 23.8317 1.19796 23.6873C0.375659 23.3315 0.0281973 22.7414 0.00172197 21.7004L0.00096861 21.6722L0.000753363 21.6568L0.000269058 21.6206V21.6128L0 21.5683V3.84502H0.00317489C0.00295964 3.5411 0.00161435 3.23691 0.00430493 2.93304C0.017704 1.52617 0.138081 0.734017 1.07709 0.336462C1.72165 0.0482192 2.75209 -0.0325677 4.40029 0.0110628V0.00881094ZM4.12827 0.712858V23.2896L4.21851 23.2885H21.8637C22.3298 23.2885 22.7101 22.9569 22.7101 22.5506C22.7101 19.9819 22.7056 17.5408 22.6995 15.1417C22.6686 15.1434 22.6375 15.1444 22.6061 15.1444H16.0225C15.5729 15.1444 15.2083 14.8266 15.2083 14.4346V11.2549C15.2083 10.8629 15.5729 10.5451 16.0225 10.5451H22.6061C22.6332 10.5451 22.6601 10.5457 22.6868 10.5471C22.6778 7.36286 22.6697 4.15503 22.6697 0.718676H20.6634V7.36863C20.6631 7.39522 20.6536 7.42111 20.6361 7.4429C20.6135 7.47089 20.579 7.48992 20.5404 7.4958C20.5017 7.50167 20.4619 7.49392 20.4298 7.47423L18.7539 6.44601L16.9937 7.46968C16.9719 7.48491 16.9456 7.49445 16.9178 7.49721C16.89 7.49997 16.8619 7.49583 16.8367 7.48527C16.8115 7.47471 16.7902 7.45816 16.7754 7.43752C16.7605 7.41689 16.7526 7.393 16.7526 7.36863V0.718676H4.40029C4.30864 0.716212 4.21698 0.714163 4.12531 0.71253V0.712858H4.12827ZM3.3141 23.2902C3.19418 23.2886 3.0743 23.2856 2.95448 23.2811C1.3786 23.2255 0.81417 22.9338 0.81417 21.4431V3.84502C0.81417 3.39154 0.795605 2.88655 0.835211 2.41121C0.880036 1.87521 0.97087 1.31853 1.56108 1.00936L1.57507 1.00227C2.05152 0.767044 2.77781 0.725666 3.3141 0.712858V23.2902ZM6.41166 6.2826C6.14927 6.2826 5.93634 6.09696 5.93634 5.86816C5.93634 5.63941 6.14927 5.45376 6.41166 5.45376H13.8034C14.0659 5.45376 14.2788 5.63941 14.2788 5.86816C14.2788 5.97807 14.2287 6.08347 14.1396 6.16119C14.0504 6.23891 13.9295 6.28258 13.8034 6.2826H6.41166ZM6.41166 4.20396C6.14927 4.20396 5.93634 4.01832 5.93634 3.78956C5.93634 3.56076 6.14927 3.37512 6.41166 3.37512H13.8034C13.9295 3.37514 14.0504 3.41882 14.1396 3.49654C14.2287 3.57425 14.2788 3.67965 14.2788 3.78956C14.2788 4.01832 14.0659 4.20396 13.8034 4.20396H6.41166ZM6.41182 8.3613C6.14938 8.3613 5.93645 8.17566 5.93645 7.9469C5.93645 7.71814 6.14938 7.5325 6.41182 7.5325H12.6767C12.9392 7.5325 13.1521 7.71814 13.1521 7.9469C13.1521 8.17566 12.9392 8.3613 12.6767 8.3613H6.41182ZM16.0225 11.2549H17.4626V14.4346H16.0225V11.2549ZM21.4772 12.3997C21.7592 12.3997 21.9877 12.5989 21.9877 12.8448C21.9877 12.9032 21.9745 12.9611 21.9489 13.0151C21.9232 13.0691 21.8856 13.1182 21.8382 13.1595C21.7908 13.2008 21.7345 13.2336 21.6726 13.256C21.6106 13.2784 21.5442 13.2899 21.4772 13.2899C21.3427 13.2887 21.2142 13.2412 21.1196 13.1579C21.025 13.0745 20.9719 12.962 20.9719 12.8448C20.9719 12.7275 21.025 12.615 21.1196 12.5316C21.2142 12.4483 21.3427 12.4009 21.4772 12.3997ZM18.2295 11.2549H22.6061C22.925 11.2549 23.1858 11.4823 23.1858 11.7604V13.9292C23.1858 14.2072 22.925 14.4346 22.6061 14.4346H18.2295V11.2549Z" fill="white"/>
</svg>
