<svg width="24" height="22" viewBox="0 0 24 22" fill="none" xmlns="http://www.w3.org/2000/svg">
<path d="M22.1448 0.315063H1.85519C0.83225 0.315063 0 1.14731 0 2.17025V14.1937C0 15.2167 0.83225 16.0489 1.85519 16.0489H10.1213C10.3159 16.0489 10.4736 15.8912 10.4736 15.6967C10.4736 15.5021 10.3159 15.3444 10.1213 15.3444H1.85519C1.22071 15.3444 0.704501 14.8282 0.704501 14.1937V2.17025C0.704501 1.53578 1.22071 1.01956 1.85519 1.01956H22.1448C22.7793 1.01956 23.2955 1.53578 23.2955 2.17025V14.1937C23.2955 14.3883 23.4532 14.546 23.6477 14.546C23.8423 14.546 24 14.3883 24 14.1937V2.17025C24 1.14731 23.1677 0.315063 22.1448 0.315063Z" fill="white"/>
<path d="M2.98238 13.4188H10.1213C10.3159 13.4188 10.4736 13.2611 10.4736 13.0665C10.4736 12.872 10.3159 12.7143 10.1213 12.7143H2.98238C2.78784 12.7143 2.63013 12.872 2.63013 13.0665C2.63013 13.2611 2.78784 13.4188 2.98238 13.4188Z" fill="white"/>
<path d="M7.09197 6.30331V4.80037C7.09197 4.19178 6.59684 3.69666 5.98825 3.69666H3.73385C3.12525 3.69666 2.63013 4.19178 2.63013 4.80037V6.30331C2.63013 6.9119 3.12525 7.40703 3.73385 7.40703H5.98825C6.59684 7.40703 7.09197 6.9119 7.09197 6.30331ZM3.33463 6.30331V5.90409H3.73385C3.92838 5.90409 4.0861 5.74638 4.0861 5.55184C4.0861 5.35731 3.92838 5.19959 3.73385 5.19959H3.33463V4.80037C3.33463 4.58024 3.51371 4.40116 3.73385 4.40116H4.5088V6.70253H3.73385C3.51371 6.70253 3.33463 6.52344 3.33463 6.30331ZM5.98825 6.70253H5.2133V4.40116H5.98825C6.20838 4.40116 6.38747 4.58024 6.38747 4.80037V5.19959H5.98825C5.79371 5.19959 5.636 5.35731 5.636 5.55184C5.636 5.74638 5.79371 5.90409 5.98825 5.90409H6.38747V6.30331C6.38747 6.52344 6.20838 6.70253 5.98825 6.70253Z" fill="white"/>
<path d="M2.63013 10.8121C2.63013 11.0067 2.78784 11.1644 2.98238 11.1644C3.17691 11.1644 3.33463 11.0067 3.33463 10.8121V10.0607C3.33463 9.86612 3.17691 9.7084 2.98238 9.7084C2.78784 9.7084 2.63013 9.86612 2.63013 10.0607V10.8121Z" fill="white"/>
<path d="M3.75732 10.0607V10.8121C3.75732 11.0067 3.91504 11.1644 4.10957 11.1644C4.30411 11.1644 4.46183 11.0067 4.46183 10.8121V10.0607C4.46183 9.86612 4.30411 9.7084 4.10957 9.7084C3.91504 9.7084 3.75732 9.86612 3.75732 10.0607Z" fill="white"/>
<path d="M4.88452 10.0607V10.8121C4.88452 11.0067 5.04224 11.1644 5.23677 11.1644C5.43131 11.1644 5.58902 11.0067 5.58902 10.8121V10.0607C5.58902 9.86612 5.43131 9.7084 5.23677 9.7084C5.04224 9.7084 4.88452 9.86612 4.88452 10.0607Z" fill="white"/>
<path d="M6.01172 10.0607V10.8121C6.01172 11.0067 6.16943 11.1644 6.36397 11.1644C6.55851 11.1644 6.71622 11.0067 6.71622 10.8121V10.0607C6.71622 9.86612 6.55851 9.7084 6.36397 9.7084C6.16943 9.7084 6.01172 9.86612 6.01172 10.0607Z" fill="white"/>
<path d="M8.21915 10.8121V10.0607C8.21915 9.86612 8.06144 9.7084 7.8669 9.7084C7.67236 9.7084 7.51465 9.86612 7.51465 10.0607V10.8121C7.51465 11.0067 7.67236 11.1644 7.8669 11.1644C8.06144 11.1644 8.21915 11.0067 8.21915 10.8121Z" fill="white"/>
<path d="M9.34635 10.8121V10.0607C9.34635 9.86612 9.18863 9.7084 8.9941 9.7084C8.79956 9.7084 8.64185 9.86612 8.64185 10.0607V10.8121C8.64185 11.0067 8.79956 11.1644 8.9941 11.1644C9.18863 11.1644 9.34635 11.0067 9.34635 10.8121Z" fill="white"/>
<path d="M10.1213 9.7084C9.92676 9.7084 9.76904 9.86612 9.76904 10.0607V10.8121C9.76904 11.0067 9.92676 11.1644 10.1213 11.1644C10.3158 11.1644 10.4735 11.0067 10.4735 10.8121V10.0607C10.4735 9.86612 10.3158 9.7084 10.1213 9.7084Z" fill="white"/>
<path d="M11.6007 10.8121V10.0607C11.6007 9.86612 11.443 9.7084 11.2485 9.7084C11.054 9.7084 10.8962 9.86612 10.8962 10.0607V10.8121C10.8962 11.0067 11.054 11.1644 11.2485 11.1644C11.443 11.1644 11.6007 11.0067 11.6007 10.8121Z" fill="white"/>
<path d="M19.5146 7.40703C20.5376 7.40703 21.3698 6.57478 21.3698 5.55184C21.3698 4.52891 20.5376 3.69666 19.5146 3.69666H17.2602C16.2373 3.69666 15.405 4.52891 15.405 5.55184C15.405 6.57478 16.2373 7.40703 17.2602 7.40703H19.5146ZM16.1095 5.55184C16.1095 4.91737 16.6257 4.40116 17.2602 4.40116H19.5146C20.1491 4.40116 20.6653 4.91737 20.6653 5.55184C20.6653 6.18631 20.1491 6.70253 19.5146 6.70253H17.2602C16.6257 6.70253 16.1095 6.18631 16.1095 5.55184Z" fill="white"/>
<path d="M22.2519 11.9134C22.1718 11.858 22.0724 11.8383 21.9772 11.8587C21.6571 11.9278 21.3342 11.9628 21.0175 11.9628C19.4535 11.9628 18.0198 11.1684 17.1826 9.8377C17.1181 9.73522 17.0055 9.67303 16.8844 9.67303C16.7634 9.67303 16.6508 9.73522 16.5863 9.8377C15.7491 11.1684 14.3155 11.9628 12.7514 11.9628C12.4348 11.9628 12.1119 11.9278 11.7917 11.8587C11.6966 11.8382 11.5971 11.858 11.517 11.9134C11.437 11.9688 11.3834 12.0549 11.3691 12.1511C11.3046 12.5832 11.272 13.0176 11.272 13.4423C11.272 17.1345 13.5851 20.5933 16.7721 21.6665C16.8085 21.6788 16.8465 21.6849 16.8845 21.6849C16.9225 21.6849 16.9604 21.6788 16.9969 21.6665C20.1839 20.5933 22.497 17.1345 22.497 13.4423C22.497 13.0176 22.4644 12.5832 22.3999 12.1511C22.3856 12.0548 22.332 11.9688 22.2519 11.9134ZM13.3973 18.1171C12.4811 16.7339 11.9765 15.0736 11.9765 13.4423C11.9765 13.1698 11.9912 12.8928 12.0202 12.6149C12.2648 12.6497 12.5095 12.6673 12.7514 12.6673C14.2018 12.6673 15.5545 12.0763 16.5322 11.0489V20.8201C15.313 20.2932 14.2128 19.3482 13.3973 18.1171ZM20.3717 18.1171C19.5562 19.3482 18.4561 20.2932 17.2367 20.8201V11.0489C18.2145 12.0763 19.5672 12.6673 21.0176 12.6673C21.2595 12.6673 21.5042 12.6497 21.7487 12.6149C21.7778 12.8928 21.7925 13.1698 21.7925 13.4423C21.7925 15.0736 21.2879 16.7339 20.3717 18.1171Z" fill="white"/>
</svg>
