<svg width="24" height="24" viewBox="0 0 24 24" fill="none" xmlns="http://www.w3.org/2000/svg">
<g clip-path="url(#clip0_14_1746)">
<path opacity="0.971" fill-rule="evenodd" clip-rule="evenodd" d="M10.4766 -0.0234375C10.4922 -0.0234375 10.5078 -0.0234375 10.5234 -0.0234375C11.4131 0.897455 12.3193 1.8037 13.2422 2.69531C13.6477 2.31318 14.0462 1.92255 14.4375 1.52344C15.8047 2.89063 17.1719 4.25781 18.5391 5.625C17.8204 5.91666 17.086 6.15103 16.3359 6.32812C15.7031 5.69531 15.0703 5.0625 14.4375 4.42969C13.375 5.4922 12.3125 6.55467 11.25 7.61719C10.5376 7.37189 9.82669 7.12191 9.11719 6.86719C9.99933 5.96156 10.89 5.06316 11.7891 4.17188C11.3594 3.74219 10.9297 3.3125 10.5 2.88281C9.39844 3.98438 8.29688 5.08594 7.19531 6.1875C6.44522 6.01041 5.71083 5.77603 4.99219 5.48438C6.82973 3.65463 8.65786 1.81869 10.4766 -0.0234375Z" fill="white"/>
<path opacity="0.975" fill-rule="evenodd" clip-rule="evenodd" d="M23.9766 11.3203C23.9766 11.6953 23.9766 12.0703 23.9766 12.4453C23.7084 13.5125 23.0678 14.2625 22.0547 14.6953C22.0234 16.6797 21.9922 18.6641 21.9609 20.6484C18.656 21.75 15.3592 22.8594 12.0703 23.9766C12.0078 23.9766 11.9453 23.9766 11.8828 23.9766C8.59397 22.8594 5.29711 21.75 1.99219 20.6484C1.96094 18.6641 1.92969 16.6797 1.89844 14.6953C0.842264 14.2491 0.201638 13.4678 -0.0234375 12.3516C-0.0234375 12.0234 -0.0234375 11.6953 -0.0234375 11.3672C0.0567478 10.9944 0.18956 10.635 0.375 10.2891C1.0821 9.14058 1.77742 7.98436 2.46094 6.82031C2.5 6.8047 2.53906 6.78905 2.57812 6.77344C5.70966 7.80947 8.84245 8.84072 11.9766 9.86719C15.1107 8.84072 18.2435 7.80947 21.375 6.77344C21.414 6.78905 21.4531 6.8047 21.4922 6.82031C22.1757 7.98436 22.871 9.14058 23.5781 10.2891C23.754 10.6222 23.8868 10.9659 23.9766 11.3203ZM3.44531 9.21094C5.77889 9.9862 8.10703 10.7752 10.4297 11.5781C9.88856 12.4336 9.36516 13.3008 8.85938 14.1797C8.59875 14.4624 8.27845 14.5796 7.89844 14.5312C6.11719 13.9375 4.33594 13.3438 2.55469 12.75C2.11045 12.4635 1.94639 12.0651 2.0625 11.5547C2.51153 10.7659 2.97247 9.9847 3.44531 9.21094ZM20.4609 9.21094C20.943 9.92348 21.4039 10.6579 21.8438 11.4141C22.0664 11.9846 21.918 12.4299 21.3984 12.75C19.6172 13.3438 17.8359 13.9375 16.0547 14.5312C15.6747 14.5796 15.3544 14.4624 15.0938 14.1797C14.588 13.3008 14.0646 12.4336 13.5234 11.5781C15.8372 10.7835 18.1497 9.99441 20.4609 9.21094ZM10.8984 14.7422C10.953 16.9843 10.9609 19.2343 10.9219 21.4922C8.62495 20.7031 6.32025 19.9375 4.00781 19.1953C4 17.9296 4.00781 16.664 4.03125 15.3984C5.06606 15.759 6.10514 16.1106 7.14844 16.4531C8.84934 16.853 10.0994 16.2826 10.8984 14.7422ZM13.0078 14.7422C13.8338 16.2758 15.0994 16.8461 16.8047 16.4531C17.848 16.1106 18.8871 15.759 19.9219 15.3984C19.9453 16.664 19.9531 17.9296 19.9453 19.1953C17.6329 19.9375 15.3282 20.7031 13.0312 21.4922C13.0078 19.2422 13 16.9922 13.0078 14.7422Z" fill="white"/>
</g>
<defs>
<clipPath id="clip0_14_1746">
<rect width="24" height="24" fill="white"/>
</clipPath>
</defs>
</svg>
