<svg width="24" height="24" viewBox="0 0 24 24" fill="none" xmlns="http://www.w3.org/2000/svg">
<g clip-path="url(#clip0_23_538)">
<path d="M23.8044 6.65624C23.7357 6.55854 23.6444 6.4788 23.5384 6.42373C23.4323 6.36865 23.3146 6.33987 23.1951 6.33979H7.27786L6.07299 2.18479C5.60049 0.548665 4.47771 0.37204 4.01721 0.37204H0.804588C0.392814 0.37204 0.0598145 0.705415 0.0598145 1.11679C0.0598145 1.52816 0.393189 1.86152 0.804564 1.86152H4.01681C4.11844 1.86152 4.42856 1.86152 4.64009 2.59239L8.78496 17.8253C8.87496 18.1466 9.16784 18.3686 9.50194 18.3686H19.6262C19.9405 18.3686 20.2209 18.1717 20.3271 17.8759L23.8956 7.33649C23.9777 7.10812 23.9436 6.85387 23.8045 6.65624H23.8044ZM19.1021 16.8795H10.0672L7.69648 7.82967H22.1362L19.1021 16.8795ZM17.625 19.878C16.5892 19.878 15.75 20.7173 15.75 21.753C15.75 22.7888 16.5892 23.628 17.625 23.628C18.6607 23.628 19.5 22.7888 19.5 21.753C19.5 20.7173 18.6607 19.878 17.625 19.878ZM10.875 19.878C9.83923 19.878 8.99998 20.7173 8.99998 21.753C8.99998 22.7888 9.83923 23.628 10.875 23.628C11.9107 23.628 12.75 22.7888 12.75 21.753C12.75 20.7173 11.9107 19.878 10.875 19.878Z" fill="white"/>
</g>
<defs>
<clipPath id="clip0_23_538">
<rect width="24" height="24" fill="white"/>
</clipPath>
</defs>
</svg>
