<svg width="24" height="24" viewBox="0 0 24 24" fill="none" xmlns="http://www.w3.org/2000/svg">
<g clip-path="url(#clip0_23_525)">
<path opacity="0.938" fill-rule="evenodd" clip-rule="evenodd" d="M0.351562 0.351561C1.16421 0.343751 1.97671 0.351564 2.78906 0.374998C3.82031 1.0625 4.85156 1.75 5.88281 2.4375C5.97656 2.46875 6.07031 2.46875 6.16406 2.4375C7.03655 2.238 7.91156 2.0505 8.78906 1.875C9.22655 1.84375 9.66408 1.84375 10.1016 1.875C10.9273 2.06167 11.7397 2.29604 12.5391 2.57812C13.5948 2.83228 14.6495 3.0901 15.7031 3.35156C15.9009 3.35826 16.0806 3.30358 16.2422 3.1875C17.8752 2.23814 19.5158 1.30064 21.1641 0.374998C21.9764 0.351564 22.7889 0.343751 23.6016 0.351561C23.6016 2.21094 23.6016 4.07031 23.6016 5.92969C21.9263 6.42295 20.2545 6.9308 18.5859 7.45312C18.0234 7.78125 17.4609 8.10937 16.8984 8.4375C16.8914 9.21787 16.5008 9.64758 15.7266 9.72656C15.6797 10.4297 15.3047 10.8047 14.6016 10.8516C14.618 11.0182 14.5868 11.1744 14.5078 11.3203C16.6817 12.3463 17.9551 14.0494 18.3281 16.4297C18.5369 19.5685 17.2322 21.8107 14.4141 23.1562C11.5121 24.1476 9.03553 23.5148 6.98437 21.2578C5.43525 19.1475 5.16966 16.8819 6.1875 14.4609C6.79959 13.1926 7.72926 12.2317 8.97656 11.5781C8.51269 11.3565 8.26266 10.9893 8.22656 10.4766C7.52344 10.4297 7.14844 10.0547 7.10156 9.35156C6.408 9.29873 6.01739 8.92373 5.92969 8.22656C5.57977 8.0249 5.23598 7.81397 4.89844 7.59375C3.39766 7.00345 1.88985 6.43317 0.375 5.88281C0.351563 4.03913 0.34375 2.19538 0.351562 0.351561ZM1.10156 1.10156C1.55496 1.09376 2.00808 1.10157 2.46094 1.125C3.49025 1.7954 4.50587 2.4829 5.50781 3.1875C5.19239 4.30079 4.89553 5.418 4.61719 6.53906C3.45279 6.1613 2.29654 5.75508 1.14844 5.32031C1.10157 3.91441 1.08594 2.50816 1.10156 1.10156ZM21.4922 1.10156C21.9453 1.10156 22.3984 1.10156 22.8516 1.10156C22.8516 2.50781 22.8516 3.91406 22.8516 5.32031C21.4104 5.74317 19.9729 6.18066 18.5391 6.63281C17.9198 5.72465 17.3104 4.81059 16.7109 3.89062C18.2986 2.94843 19.8923 2.01874 21.4922 1.10156ZM8.83594 2.64844C9.60089 2.56755 10.3352 2.67693 11.0391 2.97656C10.4214 3.30884 9.79641 3.62916 9.16406 3.9375C8.65116 4.31953 8.47148 4.82733 8.625 5.46094C8.90241 6.18187 9.42581 6.47095 10.1953 6.32812C10.7948 6.03623 11.3729 5.70811 11.9297 5.34375C12.1285 5.27545 12.3316 5.2598 12.5391 5.29687C12.7241 5.40375 12.8959 5.52876 13.0547 5.67187C14.0634 6.57131 15.0556 7.48537 16.0312 8.41406C16.0615 8.85281 15.8662 9.01687 15.4453 8.90625C14.7457 8.32589 14.0504 7.73995 13.3594 7.14844C13.1741 7.35501 12.9945 7.56595 12.8203 7.78125C13.5293 8.34956 14.2247 8.9355 14.9062 9.53906C14.9582 9.99384 14.7629 10.1579 14.3203 10.0312C13.6207 9.45089 12.9254 8.86495 12.2344 8.27344C12.0491 8.48001 11.8695 8.69095 11.6953 8.90625C12.4043 9.47456 13.0997 10.0605 13.7812 10.6641C13.8573 11.0995 13.6776 11.2636 13.2422 11.1562C13.0567 11.0515 12.8926 10.9187 12.75 10.7578C12.7966 9.92573 12.4138 9.45698 11.6016 9.35156C11.5547 8.64844 11.1797 8.27344 10.4766 8.22656C10.4297 7.52344 10.0547 7.14844 9.35156 7.10156C9.29826 6.3764 8.90766 6.0014 8.17969 5.97656C7.8817 5.9639 7.61606 6.04987 7.38281 6.23437C6.98437 6.63281 6.58594 7.03125 6.1875 7.42969C5.89842 7.26956 5.61717 7.09772 5.34375 6.91406C5.65791 5.68181 5.9782 4.44744 6.30469 3.21094C7.1602 3.0516 8.00395 2.8641 8.83594 2.64844ZM12.0703 3.39844C12.3208 3.39065 12.5708 3.39846 12.8203 3.42187C13.588 3.63334 14.3537 3.85209 15.1172 4.07812C15.3672 4.09375 15.6172 4.10938 15.8672 4.125C16.4902 5.03503 17.1074 5.94909 17.7188 6.86719C17.75 6.91406 17.75 6.96094 17.7188 7.00781C17.3242 7.24809 16.9257 7.48247 16.5234 7.71094C15.376 6.6765 14.2198 5.65303 13.0547 4.64062C12.6285 4.46428 12.1909 4.43304 11.7422 4.54687C11.1675 4.8563 10.605 5.18442 10.0547 5.53125C9.50691 5.57742 9.29597 5.33522 9.42187 4.80469C9.49219 4.73437 9.5625 4.66406 9.63281 4.59375C10.4438 4.18038 11.2563 3.78194 12.0703 3.39844ZM7.99219 6.77344C8.42142 6.72605 8.60109 6.91355 8.53125 7.33594C8.13281 7.73437 7.73437 8.13281 7.33594 8.53125C6.90623 8.60156 6.72656 8.42189 6.79687 7.99219C7.20478 7.59211 7.60322 7.18584 7.99219 6.77344ZM9.11719 7.89844C9.54642 7.85105 9.72609 8.03855 9.65625 8.46094C9.25781 8.85937 8.85937 9.25781 8.46094 9.65625C8.03123 9.72656 7.85156 9.54689 7.92187 9.11719C8.32978 8.71711 8.72822 8.31084 9.11719 7.89844ZM10.2422 9.02344C10.6714 8.97605 10.8511 9.16355 10.7812 9.58594C10.3828 9.98437 9.98437 10.3828 9.58594 10.7812C9.15623 10.8516 8.97656 10.6719 9.04687 10.2422C9.45478 9.84211 9.85322 9.43584 10.2422 9.02344ZM11.3672 10.1484C11.7964 10.101 11.9761 10.2885 11.9062 10.7109C11.5078 11.1094 11.1094 11.5078 10.7109 11.9062C10.2812 11.9766 10.1016 11.7969 10.1719 11.3672C10.5798 10.9671 10.9782 10.5608 11.3672 10.1484ZM12.2578 11.5078C12.6371 11.6131 12.7543 11.8475 12.6094 12.2109C12.2833 12.3946 12.0099 12.3243 11.7891 12C11.9549 11.8421 12.1111 11.678 12.2578 11.5078ZM13.7578 11.9297C15.912 12.7216 17.1699 14.2529 17.5312 16.5234C17.7019 19.3161 16.5222 21.2927 13.9922 22.4531C11.9474 23.154 10.0724 22.8415 8.36719 21.5156C6.42497 19.6761 5.91712 17.4964 6.84375 14.9766C7.35239 13.8741 8.12583 13.0069 9.16406 12.375C9.28397 12.2988 9.40898 12.2519 9.53906 12.2344C9.68817 12.4343 9.87567 12.5906 10.1016 12.7031C8.44378 13.455 7.45158 14.7285 7.125 16.5234C6.91514 18.7052 7.73545 20.3692 9.58594 21.5156C10.9362 22.1872 12.3268 22.281 13.7578 21.7969C15.48 21.0637 16.5035 19.7746 16.8281 17.9297C16.9962 15.2712 15.8477 13.4509 13.3828 12.4687C13.4596 12.314 13.4909 12.1499 13.4766 11.9766C13.5813 11.9904 13.6751 11.9747 13.7578 11.9297ZM11.9297 13.1016C14.1661 13.2623 15.5333 14.4342 16.0312 16.6172C16.2018 18.6441 15.3815 20.105 13.5703 21C11.4752 21.7131 9.77995 21.174 8.48437 19.3828C7.70311 17.9453 7.70311 16.5078 8.48437 15.0703C9.30951 13.8491 10.458 13.1929 11.9297 13.1016Z" fill="white"/>
<path opacity="0.964" fill-rule="evenodd" clip-rule="evenodd" d="M3.30469 10.5703C4.21044 11.6802 5.08542 12.8209 5.92969 13.9922C5.79708 14.1168 5.65645 14.234 5.50781 14.3438C5.43492 14.4042 5.35683 14.4354 5.27344 14.4375C4.76564 13.7734 4.25781 13.1094 3.75 12.4453C3.72656 15.039 3.71875 17.6328 3.72656 20.2266C3.47656 20.2266 3.22656 20.2266 2.97656 20.2266C2.98438 17.6328 2.97656 15.039 2.95312 12.4453C2.44531 13.1094 1.9375 13.7734 1.42969 14.4375C1.34632 14.4354 1.26819 14.4042 1.19531 14.3438C1.04668 14.234 0.906052 14.1168 0.773438 13.9922C1.62948 12.8572 2.47323 11.7165 3.30469 10.5703Z" fill="white"/>
<path opacity="0.964" fill-rule="evenodd" clip-rule="evenodd" d="M20.5547 10.5703C21.4605 11.6802 22.3354 12.8209 23.1797 13.9922C23.0471 14.1168 22.9065 14.234 22.7578 14.3438C22.6849 14.4042 22.6068 14.4354 22.5234 14.4375C22.0156 13.7734 21.5078 13.1094 21 12.4453C20.9766 15.039 20.9687 17.6328 20.9766 20.2266C20.7266 20.2266 20.4765 20.2266 20.2266 20.2266C20.2344 17.6328 20.2266 15.039 20.2031 12.4453C19.6953 13.1094 19.1875 13.7734 18.6797 14.4375C18.5963 14.4354 18.5182 14.4042 18.4453 14.3438C18.2967 14.234 18.156 14.1168 18.0234 13.9922C18.8795 12.8572 19.7232 11.7165 20.5547 10.5703Z" fill="white"/>
<path opacity="0.948" fill-rule="evenodd" clip-rule="evenodd" d="M11.6015 13.8516C11.8515 13.8516 12.1015 13.8516 12.3515 13.8516C12.3515 14.1015 12.3515 14.3516 12.3515 14.6016C13.3046 14.6484 13.8046 15.1485 13.8515 16.1016C13.5859 16.1016 13.3203 16.1016 13.0546 16.1016C13.0208 15.6692 12.7864 15.4271 12.3515 15.375C11.9458 15.3153 11.5552 15.3622 11.1796 15.5156C10.8046 15.9062 10.8046 16.2969 11.1796 16.6875C11.3084 16.7695 11.449 16.8164 11.6015 16.8281C11.9765 16.8437 12.3515 16.8594 12.7265 16.875C13.6142 17.1729 13.9815 17.7901 13.8281 18.7266C13.6796 19.3125 13.3125 19.6797 12.7265 19.8281C12.6025 19.8514 12.4775 19.8593 12.3515 19.8516C12.3515 20.1015 12.3515 20.3516 12.3515 20.6016C12.1015 20.6016 11.8515 20.6016 11.6015 20.6016C11.6015 20.3516 11.6015 20.1015 11.6015 19.8516C10.845 19.8214 10.3528 19.4464 10.125 18.7266C10.1016 18.477 10.0937 18.2271 10.1015 17.9766C10.3515 17.9766 10.6015 17.9766 10.8515 17.9766C10.8044 18.7732 11.1794 19.1482 11.9765 19.1016C12.4541 19.1713 12.8057 18.9994 13.0312 18.5859C13.1332 18.0319 12.9067 17.7116 12.3515 17.625C11.9765 17.6094 11.6015 17.5937 11.2265 17.5781C10.3388 17.2802 9.97158 16.663 10.125 15.7266C10.2734 15.1406 10.6406 14.7735 11.2265 14.625C11.3505 14.6017 11.4756 14.5939 11.6015 14.6016C11.6015 14.3516 11.6015 14.1015 11.6015 13.8516Z" fill="white"/>
<path fill-rule="evenodd" clip-rule="evenodd" d="M2.97656 20.9766C3.22656 20.9766 3.47656 20.9766 3.72656 20.9766C3.72656 21.2265 3.72656 21.4766 3.72656 21.7266C3.47656 21.7266 3.22656 21.7266 2.97656 21.7266C2.97656 21.4766 2.97656 21.2265 2.97656 20.9766Z" fill="white"/>
<path fill-rule="evenodd" clip-rule="evenodd" d="M20.2266 20.9766C20.4765 20.9766 20.7266 20.9766 20.9766 20.9766C20.9766 21.2265 20.9766 21.4766 20.9766 21.7266C20.7266 21.7266 20.4765 21.7266 20.2266 21.7266C20.2266 21.4766 20.2266 21.2265 20.2266 20.9766Z" fill="white"/>
</g>
<defs>
<clipPath id="clip0_23_525">
<rect width="24" height="24" fill="white"/>
</clipPath>
</defs>
</svg>
