<svg width="24" height="24" viewBox="0 0 24 24" fill="none" xmlns="http://www.w3.org/2000/svg">
<path d="M17.9339 23.8234C18.0516 23.9411 18.2037 24 18.3607 24C18.5177 24 18.6698 23.9411 18.7875 23.8234L23.4236 19.1872C23.6591 18.9518 23.6591 18.574 23.4236 18.3385L18.7875 13.7024C18.552 13.4669 18.1743 13.4669 17.9388 13.7024C17.7033 13.9379 17.7033 14.3156 17.9388 14.5511L21.5496 18.1619H0.998454C0.664848 18.1619 0.39502 18.4317 0.39502 18.7653C0.39502 19.0989 0.664848 19.3688 0.998454 19.3688H21.5447L17.9339 22.9747C17.6984 23.2101 17.6984 23.5928 17.9339 23.8234Z" fill="white"/>
<path d="M5.21266 0.176615L0.576517 4.81276C0.341031 5.04824 0.341031 5.426 0.576517 5.66149L5.21266 10.2976C5.3304 10.4154 5.48249 10.4742 5.63948 10.4742C5.79647 10.4742 5.94855 10.4154 6.0663 10.2976C6.30178 10.0621 6.30178 9.68438 6.0663 9.4489L2.4555 5.8381H23.0017C23.3353 5.8381 23.6051 5.56827 23.6051 5.23467C23.6051 4.90106 23.3353 4.63123 23.0017 4.63123H2.4506L6.06139 1.02535C6.29688 0.789861 6.29688 0.412101 6.06139 0.176615C5.8259 -0.0588716 5.44324 -0.0588716 5.21266 0.176615Z" fill="white"/>
</svg>
