<svg width="22" height="24" viewBox="0 0 22 24" fill="none" xmlns="http://www.w3.org/2000/svg">
<path d="M5.01211 18.3999H5.00812C4.78734 18.3999 4.61011 18.5791 4.61011 18.7999C4.61011 19.0207 4.79133 19.1999 5.01211 19.1999C5.23289 19.1999 5.41209 19.0207 5.41209 18.7999C5.41209 18.5791 5.23289 18.3999 5.01211 18.3999Z" fill="white"/>
<path d="M7.41201 18.3999H7.40802C7.18724 18.3999 7.01001 18.5791 7.01001 18.7999C7.01001 19.0207 7.19123 19.1999 7.41201 19.1999C7.63279 19.1999 7.81199 19.0207 7.81199 18.7999C7.81199 18.5791 7.63279 18.3999 7.41201 18.3999Z" fill="white"/>
<path d="M10.6 12.8H7.39998C7.17878 12.8 7 12.9792 7 13.2C7 13.4208 7.17878 13.6 7.39998 13.6H10.6C10.8212 13.6 11 13.4208 11 13.2C11 12.9792 10.8212 12.8 10.6 12.8Z" fill="white"/>
<path d="M8.99996 15.2H7.39998C7.17878 15.2 7 15.3792 7 15.5999C7 15.8207 7.17878 15.9999 7.39998 15.9999H8.99996C9.22116 15.9999 9.39994 15.8207 9.39994 15.5999C9.39999 15.3792 9.22116 15.2 8.99996 15.2Z" fill="white"/>
<path d="M15.7999 13.9999C15.3587 13.9999 14.9999 13.6412 14.9999 13.1999C14.9999 12.9791 14.8211 12.7999 14.5999 12.7999C14.3787 12.7999 14.2 12.9791 14.2 13.1999C14.2 13.9431 14.7115 14.5643 15.3999 14.7431V14.8C15.3999 15.0207 15.5787 15.1999 15.7999 15.1999C16.0211 15.1999 16.1999 15.0207 16.1999 14.8V14.7431C16.8883 14.5644 17.3999 13.9431 17.3999 13.1999C17.3999 12.3175 16.6823 11.5999 15.7999 11.5999C15.3587 11.5999 14.9999 11.2412 14.9999 10.7999C14.9999 10.3587 15.3587 9.99992 15.7999 9.99992C16.2411 9.99992 16.5999 10.3587 16.5999 10.7999C16.5999 11.0207 16.7787 11.1999 16.9999 11.1999C17.2211 11.1999 17.3999 11.0207 17.3999 10.7999C17.3999 10.0567 16.8883 9.43555 16.1999 9.25672V9.19991C16.1999 8.97913 16.0211 8.79993 15.7999 8.79993C15.5787 8.79993 15.3999 8.97913 15.3999 9.19991V9.25672C14.7115 9.4355 14.2 10.0567 14.2 10.7999C14.2 11.6824 14.9176 12.3999 15.7999 12.3999C16.2411 12.3999 16.5999 12.7587 16.5999 13.1999C16.5999 13.6411 16.2411 13.9999 15.7999 13.9999Z" fill="white"/>
<path d="M14.612 18.3999H14.608C14.3872 18.3999 14.21 18.5791 14.21 18.7999C14.21 19.0207 14.3912 19.1999 14.612 19.1999C14.8327 19.1999 15.0119 19.0207 15.0119 18.7999C15.0119 18.5791 14.8328 18.3999 14.612 18.3999Z" fill="white"/>
<path d="M19.412 19.1999C19.6328 19.1999 19.812 19.0207 19.812 18.7999C19.812 18.5792 19.6328 18.4 19.412 18.4H19.408C19.1872 18.4 19.01 18.5792 19.01 18.7999C19.01 19.0207 19.1912 19.1999 19.412 19.1999Z" fill="white"/>
<path d="M17.0121 18.3999H17.0081C16.7873 18.3999 16.6101 18.5791 16.6101 18.7999C16.6101 19.0207 16.7913 19.1999 17.0121 19.1999C17.2329 19.1999 17.4121 19.0207 17.4121 18.7999C17.4121 18.5791 17.2329 18.3999 17.0121 18.3999Z" fill="white"/>
<path d="M15.4 4.79997H17C17.2212 4.79997 17.3999 4.62076 17.3999 4.39998C17.3999 4.1792 17.2212 4 17 4H15.4C15.1788 4 15 4.1792 15 4.39998C15 4.62076 15.1788 4.79997 15.4 4.79997Z" fill="white"/>
<path d="M9.81191 18.3999H9.80793C9.58715 18.3999 9.40991 18.5791 9.40991 18.7999C9.40991 19.0207 9.59113 19.1999 9.81191 19.1999C10.0327 19.1999 10.2119 19.0207 10.2119 18.7999C10.2119 18.5791 10.0327 18.3999 9.81191 18.3999Z" fill="white"/>
<path d="M5.00008 13.6H5.80009C6.02129 13.6 6.20008 13.4208 6.20008 13.2C6.20008 12.9792 6.02129 12.8 5.80009 12.8H5.00008C4.77888 12.8 4.6001 12.9792 4.6001 13.2C4.6001 13.4208 4.77888 13.6 5.00008 13.6Z" fill="white"/>
<path d="M5.00008 15.9999H5.80009C6.02129 15.9999 6.20008 15.8207 6.20008 15.5999C6.20008 15.3792 6.02129 15.2 5.80009 15.2H5.00008C4.77888 15.2 4.6001 15.3792 4.6001 15.5999C4.6001 15.8207 4.77888 15.9999 5.00008 15.9999Z" fill="white"/>
<path d="M21 0H1.00008C0.778878 0 0.600098 0.179202 0.600098 0.399983V23.5999C0.600098 23.7615 0.697316 23.9075 0.846894 23.9695C0.896487 23.9899 0.948471 23.9999 1.00008 23.9999C1.1041 23.9999 1.20647 23.9591 1.28288 23.8827L3.40007 21.7655L5.51727 23.8827C5.67369 24.0391 5.92648 24.0391 6.08286 23.8827L7.40004 22.5655L8.71722 23.8827C8.87364 24.0391 9.12644 24.0391 9.28281 23.8827L10.6 22.5655L11.1172 23.0827C11.2736 23.2391 11.5264 23.2391 11.6828 23.0827L13 21.7655L14.3172 23.0827C14.4736 23.2391 14.7264 23.2391 14.8828 23.0827L15.8 22.1655L16.7172 23.0827C16.8736 23.2391 17.1264 23.2391 17.2828 23.0827L19.3999 20.9655L20.7171 22.2827C20.7251 22.2911 20.7335 22.2987 20.7423 22.3059C20.7423 22.3063 20.7427 22.3063 20.7427 22.3063V22.3067C20.8083 22.3615 20.8915 22.3955 20.9823 22.3996C20.9972 22.4 21.0119 22.4 21.0275 22.3991H21.028C21.1088 22.3931 21.1832 22.3639 21.2435 22.3171C21.2651 22.3007 21.2847 22.2819 21.3023 22.2616C21.3627 22.1916 21.3995 22.1008 21.3999 22.0007V21.9999V0.399983C21.4 0.179202 21.2212 0 21 0ZM20.6 21.0343L19.6828 20.1171C19.5264 19.9608 19.2736 19.9608 19.1172 20.1171L17 22.2343L16.0828 21.3171C15.9264 21.1607 15.6736 21.1607 15.5172 21.3171L14.6 22.2343L13.2828 20.9171C13.1265 20.7607 12.8736 20.7607 12.7172 20.9171L11.4001 22.2343L10.8828 21.7171C10.7264 21.5607 10.4736 21.5607 10.3172 21.7171L9.00007 23.0343L7.68288 21.7171C7.60488 21.6391 7.50246 21.5999 7.40009 21.5999C7.29767 21.5999 7.19529 21.6391 7.11729 21.7171L5.80011 23.0343L3.68291 20.9171C3.52649 20.7607 3.2737 20.7607 3.11732 20.9171L1.40011 22.6343V0.800012H20.6V21.0343H20.6Z" fill="white"/>
<path d="M2.61196 19.1999C2.83274 19.1999 3.01194 19.0207 3.01194 18.7999C3.01194 18.5792 2.83274 18.4 2.61196 18.4H2.60797C2.38719 18.4 2.20996 18.5792 2.20996 18.7999C2.20996 19.0207 2.39118 19.1999 2.61196 19.1999Z" fill="white"/>
<path d="M5.00008 11.1999H5.80009C6.02129 11.1999 6.20008 11.0207 6.20008 10.7999C6.20008 10.5792 6.02129 10.4 5.80009 10.4H5.00008C4.77888 10.4 4.6001 10.5792 4.6001 10.7999C4.6001 11.0207 4.77888 11.1999 5.00008 11.1999Z" fill="white"/>
<path d="M12.2121 19.1999C12.4328 19.1999 12.612 19.0207 12.612 18.7999C12.612 18.5792 12.4328 18.4 12.2121 18.4H12.2081C11.9873 18.4 11.8101 18.5792 11.8101 18.7999C11.8101 19.0207 11.9913 19.1999 12.2121 19.1999Z" fill="white"/>
<path d="M7.39998 8.79997H9.79997C10.0212 8.79997 10.2 8.62076 10.2 8.39998C10.2 8.1792 10.0212 8 9.79997 8H7.39998C7.17878 8 7 8.1792 7 8.39998C7 8.62076 7.17878 8.79997 7.39998 8.79997Z" fill="white"/>
<path d="M5.00008 8.79997H5.80009C6.02129 8.79997 6.20008 8.62076 6.20008 8.39998C6.20008 8.1792 6.02129 8 5.80009 8H5.00008C4.77888 8 4.6001 8.1792 4.6001 8.39998C4.6001 8.62076 4.77888 8.79997 5.00008 8.79997Z" fill="white"/>
<path d="M11.4 10.4H7.39998C7.17878 10.4 7 10.5792 7 10.7999C7 11.0207 7.17878 11.1999 7.39998 11.1999H11.4C11.6212 11.1999 11.7999 11.0207 11.7999 10.7999C11.7999 10.5792 11.6212 10.4 11.4 10.4Z" fill="white"/>
<path d="M5.00008 4.79997H11.4C11.6212 4.79997 11.8 4.62076 11.8 4.39998C11.8 4.1792 11.6212 4 11.4 4H5.00008C4.77888 4 4.6001 4.1792 4.6001 4.39998C4.6001 4.62076 4.77888 4.79997 5.00008 4.79997Z" fill="white"/>
</svg>
